<svg width="440" height="440" viewBox="0 0 440 440" fill="none" xmlns="http://www.w3.org/2000/svg">
<rect width="440" height="440" fill="black"/>
<g clip-path="url(#clip0_15_1341)">
<path d="M320 120H120V320H320V120Z" fill="black"/>
<path d="M160 161.429H229.286C232.047 161.429 234.286 163.667 234.286 166.429V265C234.286 285.514 217.656 302.143 197.143 302.143C176.629 302.143 160 285.514 160 265V161.429Z" fill="#E1E5F0"/>
<path d="M160 235.714V166.429C160 163.667 162.239 161.429 165 161.429H263.571C284.085 161.429 300.714 178.058 300.714 198.572C300.714 219.085 284.085 235.714 263.571 235.714H160Z" fill="#E1E5F0"/>
<path d="M225.704 137.143C230.444 137.143 234.286 140.985 234.286 145.725V235.714H217.857V144.99C217.857 140.656 221.37 137.143 225.704 137.143Z" fill="url(#paint0_linear_15_1341)"/>
<path d="M234.286 190.714V249.286H218.571V190.714H234.286Z" fill="url(#paint1_linear_15_1341)"/>
<mask id="mask0_15_1341" style="mask-type:luminance" maskUnits="userSpaceOnUse" x="217" y="190" width="19" height="60">
<path d="M235.714 190.714H217.143V249.286H235.714V190.714Z" fill="white"/>
<path d="M234.286 190.714V249.286H218.571V190.714H234.286Z" fill="black"/>
</mask>
<g mask="url(#mask0_15_1341)">
<path d="M234.286 190.714H233.214V249.286H234.286H235.357V190.714H234.286ZM218.571 249.286H219.643V190.714H218.571H217.5V249.286H218.571Z" fill="black"/>
</g>
<path d="M140 169.638C140 165.104 143.675 161.429 148.209 161.429H234.286V177.143H147.505C143.36 177.143 140 173.783 140 169.638Z" fill="url(#paint2_linear_15_1341)"/>
<path d="M140 169.638C140 165.104 143.675 161.429 148.209 161.429H255.714V177.143H147.505C143.36 177.143 140 173.783 140 169.638Z" fill="url(#paint3_linear_15_1341)"/>
<mask id="mask1_15_1341" style="mask-type:luminance" maskUnits="userSpaceOnUse" x="138" y="160" width="118" height="19">
<path d="M255.714 160H138.571V178.571H255.714V160Z" fill="white"/>
<path d="M140 169.638C140 165.104 143.675 161.429 148.209 161.429H255.714V177.143H147.505C143.36 177.143 140 173.783 140 169.638Z" fill="black"/>
</mask>
<g mask="url(#mask1_15_1341)">
<path d="M138.929 169.637C138.929 164.512 143.084 160.357 148.209 160.357H255.714V162.5H148.209C144.267 162.5 141.072 165.695 141.072 169.637H138.929ZM255.714 178.214H147.505C142.769 178.214 138.929 174.374 138.929 169.637H141.072C141.072 173.191 143.952 176.071 147.505 176.071H255.714V178.214ZM147.505 178.214C142.769 178.214 138.929 174.374 138.929 169.637C138.929 164.512 143.084 160.357 148.209 160.357V162.5C144.267 162.5 141.072 165.695 141.072 169.637C141.072 173.191 143.952 176.071 147.505 176.071V178.214Z" fill="black"/>
</g>
<path d="M140 169.638C140 165.104 143.675 161.429 148.209 161.429H160V177.143H147.505C143.36 177.143 140 173.783 140 169.638Z" fill="url(#paint4_linear_15_1341)"/>
<path d="M175.714 235.714H218.571V264.286C218.571 276.121 208.977 285.714 197.142 285.714C185.308 285.714 175.714 276.121 175.714 264.286V235.714Z" fill="black"/>
<path d="M234.286 220V177.143H262.858C274.693 177.143 284.286 186.737 284.286 198.572C284.286 210.407 274.693 220 262.858 220H234.286Z" fill="black"/>
<path d="M167.505 137.143C172.039 137.143 175.714 140.818 175.714 145.352V235.714H160V144.648C160 140.503 163.36 137.143 167.505 137.143Z" fill="#E1E5F0"/>
<path d="M175.714 220V177.143H218.571V220H175.714Z" fill="black"/>
<path d="M140 228.209C140 223.675 143.675 220 148.209 220H187.143V235.714H147.505C143.36 235.714 140 232.354 140 228.209Z" fill="url(#paint5_linear_15_1341)"/>
<mask id="mask2_15_1341" style="mask-type:luminance" maskUnits="userSpaceOnUse" x="138" y="218" width="50" height="20">
<path d="M187.143 218.571H138.571V237.143H187.143V218.571Z" fill="white"/>
<path d="M140 228.209C140 223.675 143.675 220 148.209 220H187.143V235.714H147.505C143.36 235.714 140 232.354 140 228.209Z" fill="black"/>
</mask>
<g mask="url(#mask2_15_1341)">
<path d="M138.929 228.209C138.929 223.083 143.084 218.928 148.209 218.928H187.143V221.071H148.209C144.267 221.071 141.072 224.267 141.072 228.209H138.929ZM187.143 236.785H147.505C142.769 236.785 138.929 232.945 138.929 228.209H141.072C141.072 231.762 143.952 234.643 147.505 234.643H187.143V236.785ZM147.505 236.785C142.769 236.785 138.929 232.945 138.929 228.209C138.929 223.083 143.084 218.928 148.209 218.928V221.071C144.267 221.071 141.072 224.267 141.072 228.209C141.072 231.762 143.952 234.643 147.505 234.643V236.785Z" fill="black"/>
</g>
<path d="M167.505 137.143C172.039 137.143 175.714 140.818 175.714 145.352V188.572H160V144.648C160 140.503 163.36 137.143 167.505 137.143Z" fill="url(#paint6_linear_15_1341)"/>
<mask id="mask3_15_1341" style="mask-type:luminance" maskUnits="userSpaceOnUse" x="158" y="135" width="20" height="54">
<path d="M177.143 135.714H158.571V188.571H177.143V135.714Z" fill="white"/>
<path d="M167.505 137.143C172.039 137.143 175.714 140.818 175.714 145.352V188.572H160V144.648C160 140.503 163.36 137.143 167.505 137.143Z" fill="black"/>
</mask>
<g mask="url(#mask3_15_1341)">
<path d="M167.505 136.071C172.631 136.071 176.786 140.226 176.786 145.352V188.571H174.643V145.352C174.643 141.41 171.447 138.214 167.505 138.214V136.071ZM158.929 188.571V144.648C158.929 139.911 162.769 136.071 167.505 136.071V138.214C163.952 138.214 161.072 141.095 161.072 144.648V188.571H158.929ZM158.929 144.648C158.929 139.911 162.769 136.071 167.505 136.071C172.631 136.071 176.786 140.226 176.786 145.352H174.643C174.643 141.41 171.447 138.214 167.505 138.214C163.952 138.214 161.072 141.095 161.072 144.648H158.929Z" fill="black"/>
</g>
</g>
<defs>
<linearGradient id="paint0_linear_15_1341" x1="225.715" y1="127.5" x2="225.715" y2="186.429" gradientUnits="userSpaceOnUse">
<stop stop-color="white"/>
<stop offset="0.652438" stop-color="white"/>
<stop offset="1" stop-color="#E1E5F0"/>
</linearGradient>
<linearGradient id="paint1_linear_15_1341" x1="226.428" y1="178.897" x2="226.428" y2="249.286" gradientUnits="userSpaceOnUse">
<stop offset="0.259615" stop-color="#E1E5F0"/>
<stop offset="0.548077" stop-color="white"/>
<stop offset="0.841346" stop-color="#E1E5F0"/>
</linearGradient>
<linearGradient id="paint2_linear_15_1341" x1="140" y1="169.286" x2="256.071" y2="169.286" gradientUnits="userSpaceOnUse">
<stop offset="0.288462" stop-color="#1D1E2F"/>
<stop offset="0.480769" stop-color="#555C6F"/>
<stop offset="0.692308" stop-color="#19192A"/>
</linearGradient>
<linearGradient id="paint3_linear_15_1341" x1="140" y1="169.286" x2="251.786" y2="169.286" gradientUnits="userSpaceOnUse">
<stop offset="0.360577" stop-color="#D4DAE8"/>
<stop offset="0.634615" stop-color="white"/>
<stop offset="0.951923" stop-color="#E1E5F0"/>
</linearGradient>
<linearGradient id="paint4_linear_15_1341" x1="140" y1="169.286" x2="164.621" y2="169.286" gradientUnits="userSpaceOnUse">
<stop offset="0.0144231" stop-color="white"/>
<stop offset="0.875" stop-color="#A7ADBB"/>
</linearGradient>
<linearGradient id="paint5_linear_15_1341" x1="130" y1="227.857" x2="211.655" y2="228.516" gradientUnits="userSpaceOnUse">
<stop offset="0.105769" stop-color="white"/>
<stop offset="0.673077" stop-color="#E1E5F0"/>
<stop offset="0.855769" stop-color="#E1E5F0"/>
</linearGradient>
<linearGradient id="paint6_linear_15_1341" x1="167.857" y1="109.286" x2="167.857" y2="188.572" gradientUnits="userSpaceOnUse">
<stop stop-color="white"/>
<stop offset="0.621063" stop-color="white"/>
<stop offset="1" stop-color="#E1E5F0"/>
</linearGradient>
<clipPath id="clip0_15_1341">
<rect width="200" height="200" fill="white" transform="translate(120 120)"/>
</clipPath>
</defs>
</svg>
