<svg width="440" height="440" fill="none" xmlns="http://www.w3.org/2000/svg"><path fill="#fff" d="M0 0h440v440H0z"/><g clip-path="url(#a)"><path d="M320 120H120v200h200V120z" fill="#fff"/><path d="M160 161.429h69.286a5 5 0 0 1 5 5V265c0 20.514-16.63 37.143-37.143 37.143C176.629 302.143 160 285.514 160 265V161.429z" fill="#19192A"/><path d="M160 235.714v-69.285a5 5 0 0 1 5-5h98.571c20.514 0 37.143 16.629 37.143 37.143 0 20.513-16.629 37.142-37.143 37.142H160z" fill="#19192A"/><path d="M225.704 137.143a8.582 8.582 0 0 1 8.582 8.582v89.989h-16.429V144.99a7.847 7.847 0 0 1 7.847-7.847z" fill="url(#b)"/><path d="M234.286 190.714v58.572h-15.715v-58.572h15.715z" fill="url(#c)"/><mask id="d" style="mask-type:luminance" maskUnits="userSpaceOnUse" x="217" y="190" width="19" height="60"><path d="M235.714 190.714h-18.571v58.572h18.571v-58.572z" fill="#fff"/><path d="M234.286 190.714v58.572h-15.715v-58.572h15.715z" fill="#000"/></mask><g mask="url(#d)"><path d="M234.286 190.714h-1.072v58.572h2.143v-58.572h-1.071zm-15.715 58.572h1.072v-58.572H217.5v58.572h1.071z" fill="#fff"/></g><path d="M140 169.638a8.209 8.209 0 0 1 8.209-8.209h86.077v15.714h-86.781a7.505 7.505 0 0 1-7.505-7.505z" fill="url(#e)"/><path d="M140 169.638a8.209 8.209 0 0 1 8.209-8.209h107.505v15.714H147.505a7.505 7.505 0 0 1-7.505-7.505z" fill="url(#f)"/><mask id="g" style="mask-type:luminance" maskUnits="userSpaceOnUse" x="138" y="160" width="118" height="19"><path d="M255.714 160H138.571v18.571h117.143V160z" fill="#fff"/><path d="M140 169.638a8.209 8.209 0 0 1 8.209-8.209h107.505v15.714H147.505a7.505 7.505 0 0 1-7.505-7.505z" fill="#000"/></mask><g mask="url(#g)"><path d="M138.929 169.637a9.28 9.28 0 0 1 9.28-9.28h107.505v2.143H148.209a7.137 7.137 0 0 0-7.137 7.137h-2.143zm116.785 8.577H147.505a8.577 8.577 0 0 1-8.576-8.577h2.143a6.433 6.433 0 0 0 6.433 6.434h108.209v2.143zm-108.209 0a8.577 8.577 0 0 1-8.576-8.577 9.28 9.28 0 0 1 9.28-9.28v2.143a7.137 7.137 0 0 0-7.137 7.137 6.433 6.433 0 0 0 6.433 6.434v2.143z" fill="#fff"/></g><path d="M140 169.638a8.209 8.209 0 0 1 8.209-8.209H160v15.714h-12.495a7.505 7.505 0 0 1-7.505-7.505z" fill="url(#h)"/><path d="M175.714 235.714h42.857v28.572c0 11.835-9.594 21.428-21.429 21.428-11.834 0-21.428-9.593-21.428-21.428v-28.572zM234.286 220v-42.857h28.572c11.835 0 21.428 9.594 21.428 21.429 0 11.835-9.593 21.428-21.428 21.428h-28.572z" fill="#fff"/><path d="M167.505 137.143a8.209 8.209 0 0 1 8.209 8.209v90.362H160v-91.066a7.505 7.505 0 0 1 7.505-7.505z" fill="#19192A"/><path d="M175.714 220v-42.857h42.857V220h-42.857z" fill="#fff"/><path d="M140 228.209a8.209 8.209 0 0 1 8.209-8.209h38.934v15.714h-39.638a7.505 7.505 0 0 1-7.505-7.505z" fill="url(#i)"/><mask id="j" style="mask-type:luminance" maskUnits="userSpaceOnUse" x="138" y="218" width="50" height="20"><path d="M187.143 218.571h-48.572v18.572h48.572v-18.572z" fill="#fff"/><path d="M140 228.209a8.209 8.209 0 0 1 8.209-8.209h38.934v15.714h-39.638a7.505 7.505 0 0 1-7.505-7.505z" fill="#000"/></mask><g mask="url(#j)"><path d="M138.929 228.209a9.28 9.28 0 0 1 9.28-9.281h38.934v2.143h-38.934a7.137 7.137 0 0 0-7.137 7.138h-2.143zm48.214 8.576h-39.638a8.577 8.577 0 0 1-8.576-8.576h2.143a6.434 6.434 0 0 0 6.433 6.434h39.638v2.142zm-39.638 0a8.577 8.577 0 0 1-8.576-8.576 9.28 9.28 0 0 1 9.28-9.281v2.143a7.137 7.137 0 0 0-7.137 7.138 6.434 6.434 0 0 0 6.433 6.434v2.142z" fill="#fff"/></g><path d="M167.505 137.143a8.209 8.209 0 0 1 8.209 8.209v43.22H160v-43.924a7.505 7.505 0 0 1 7.505-7.505z" fill="url(#k)"/><mask id="l" style="mask-type:luminance" maskUnits="userSpaceOnUse" x="158" y="135" width="20" height="54"><path d="M177.143 135.714h-18.572v52.857h18.572v-52.857z" fill="#fff"/><path d="M167.505 137.143a8.209 8.209 0 0 1 8.209 8.209v43.22H160v-43.924a7.505 7.505 0 0 1 7.505-7.505z" fill="#000"/></mask><g mask="url(#l)"><path d="M167.505 136.071a9.28 9.28 0 0 1 9.281 9.281v43.219h-2.143v-43.219a7.138 7.138 0 0 0-7.138-7.138v-2.143zm-8.576 52.5v-43.923a8.577 8.577 0 0 1 8.576-8.577v2.143a6.434 6.434 0 0 0-6.433 6.434v43.923h-2.143zm0-43.923a8.577 8.577 0 0 1 8.576-8.577 9.28 9.28 0 0 1 9.281 9.281h-2.143a7.138 7.138 0 0 0-7.138-7.138 6.434 6.434 0 0 0-6.433 6.434h-2.143z" fill="#fff"/></g></g><defs><linearGradient id="b" x1="226.072" y1="137.143" x2="226.072" y2="235.714" gradientUnits="userSpaceOnUse"><stop offset=".096" stop-color="#2E2F46"/><stop offset="1" stop-color="#19192A"/></linearGradient><linearGradient id="c" x1="226.428" y1="178.897" x2="226.428" y2="249.286" gradientUnits="userSpaceOnUse"><stop offset=".26" stop-color="#25253A"/><stop offset=".548" stop-color="#434858"/><stop offset=".841" stop-color="#19192A"/></linearGradient><linearGradient id="e" x1="140" y1="169.286" x2="256.071" y2="169.286" gradientUnits="userSpaceOnUse"><stop offset=".288" stop-color="#1D1E2F"/><stop offset=".481" stop-color="#555C6F"/><stop offset=".692" stop-color="#19192A"/></linearGradient><linearGradient id="f" x1="140" y1="169.286" x2="251.786" y2="169.286" gradientUnits="userSpaceOnUse"><stop offset=".369" stop-color="#1D1E2F"/><stop offset=".635" stop-color="#424859"/><stop offset=".952" stop-color="#19192A"/></linearGradient><linearGradient id="h" x1="140" y1="169.286" x2="164.621" y2="169.286" gradientUnits="userSpaceOnUse"><stop offset=".014" stop-color="#555C6F"/><stop offset=".875" stop-color="#19192A"/></linearGradient><linearGradient id="i" x1="140" y1="227.857" x2="211.655" y2="228.479" gradientUnits="userSpaceOnUse"><stop offset=".083" stop-color="#555C6F"/><stop offset=".423" stop-color="#1D1E2F"/><stop offset=".712" stop-color="#19192A"/></linearGradient><linearGradient id="k" x1="167.857" y1="137.143" x2="167.857" y2="176.174" gradientUnits="userSpaceOnUse"><stop stop-color="#555C6F"/><stop offset="1" stop-color="#19192A"/></linearGradient><clipPath id="a"><path fill="#fff" transform="translate(120 120)" d="M0 0h200v200H0z"/></clipPath></defs></svg>