<svg width="1008" height="448" viewBox="0 0 1008 448" fill="none" xmlns="http://www.w3.org/2000/svg">
<g filter="url(#filter0_d_13_1185)">
<rect width="1000" height="440" transform="translate(4)" fill="black"/>
<g clip-path="url(#clip0_13_1185)">
<path d="M285 120H85V320H285V120Z" fill="black"/>
<path d="M125 161.429H194.286C197.047 161.429 199.286 163.667 199.286 166.429V265C199.286 285.514 182.656 302.143 162.143 302.143C141.629 302.143 125 285.514 125 265V161.429Z" fill="#E1E5F0"/>
<path d="M125 235.714V166.429C125 163.667 127.239 161.429 130 161.429H228.571C249.085 161.429 265.714 178.058 265.714 198.571C265.714 219.085 249.085 235.714 228.571 235.714H125Z" fill="#E1E5F0"/>
<path d="M190.703 137.143C195.443 137.143 199.286 140.985 199.286 145.725V235.714H182.857V144.989C182.857 140.656 186.37 137.143 190.703 137.143Z" fill="url(#paint0_linear_13_1185)"/>
<path d="M199.286 190.714V249.286H183.571V190.714H199.286Z" fill="url(#paint1_linear_13_1185)"/>
<mask id="mask0_13_1185" style="mask-type:luminance" maskUnits="userSpaceOnUse" x="182" y="190" width="19" height="60">
<path d="M200.714 190.714H182.143V249.286H200.714V190.714Z" fill="white"/>
<path d="M199.286 190.714V249.286H183.572V190.714H199.286Z" fill="black"/>
</mask>
<g mask="url(#mask0_13_1185)">
<path d="M199.286 190.714H198.214V249.286H199.286H200.357V190.714H199.286ZM183.571 249.286H184.643V190.714H183.571H182.5V249.286H183.571Z" fill="black"/>
</g>
<path d="M105 169.638C105 165.104 108.675 161.429 113.209 161.429H199.286V177.143H112.505C108.36 177.143 105 173.783 105 169.638Z" fill="url(#paint2_linear_13_1185)"/>
<path d="M105 169.638C105 165.104 108.675 161.429 113.209 161.429H220.714V177.143H112.505C108.36 177.143 105 173.783 105 169.638Z" fill="url(#paint3_linear_13_1185)"/>
<mask id="mask1_13_1185" style="mask-type:luminance" maskUnits="userSpaceOnUse" x="103" y="160" width="118" height="19">
<path d="M220.714 160H103.571V178.571H220.714V160Z" fill="white"/>
<path d="M105 169.638C105 165.104 108.675 161.429 113.209 161.429H220.714V177.143H112.505C108.36 177.143 105 173.783 105 169.638Z" fill="black"/>
</mask>
<g mask="url(#mask1_13_1185)">
<path d="M103.928 169.638C103.928 164.512 108.083 160.357 113.209 160.357H220.714V162.5H113.209C109.267 162.5 106.071 165.696 106.071 169.638H103.928ZM220.714 178.214H112.505C107.768 178.214 103.928 174.374 103.928 169.638H106.071C106.071 173.191 108.952 176.071 112.505 176.071H220.714V178.214ZM112.505 178.214C107.768 178.214 103.928 174.374 103.928 169.638C103.928 164.512 108.083 160.357 113.209 160.357V162.5C109.267 162.5 106.071 165.696 106.071 169.638C106.071 173.191 108.952 176.071 112.505 176.071V178.214Z" fill="black"/>
</g>
<path d="M105 169.638C105 165.104 108.675 161.429 113.209 161.429H125V177.143H112.505C108.36 177.143 105 173.783 105 169.638Z" fill="url(#paint4_linear_13_1185)"/>
<path d="M140.714 235.714H183.571V264.286C183.571 276.121 173.978 285.714 162.143 285.714C150.308 285.714 140.714 276.121 140.714 264.286V235.714Z" fill="black"/>
<path d="M199.286 220V177.143H227.857C239.692 177.143 249.286 186.737 249.286 198.571C249.286 210.406 239.692 220 227.857 220H199.286Z" fill="black"/>
<path d="M132.505 137.143C137.039 137.143 140.714 140.818 140.714 145.352V235.714H125V144.648C125 140.503 128.36 137.143 132.505 137.143Z" fill="#E1E5F0"/>
<path d="M140.714 220V177.143H183.571V220H140.714Z" fill="black"/>
<path d="M105 228.209C105 223.675 108.675 220 113.209 220H152.143V235.714H112.505C108.36 235.714 105 232.354 105 228.209Z" fill="url(#paint5_linear_13_1185)"/>
<mask id="mask2_13_1185" style="mask-type:luminance" maskUnits="userSpaceOnUse" x="103" y="218" width="50" height="20">
<path d="M152.143 218.571H103.571V237.143H152.143V218.571Z" fill="white"/>
<path d="M105 228.209C105 223.675 108.675 220 113.209 220H152.143V235.714H112.505C108.36 235.714 105 232.354 105 228.209Z" fill="black"/>
</mask>
<g mask="url(#mask2_13_1185)">
<path d="M103.928 228.209C103.928 223.084 108.083 218.929 113.209 218.929H152.143V221.071H113.209C109.267 221.071 106.071 224.267 106.071 228.209H103.928ZM152.143 236.786H112.505C107.768 236.786 103.928 232.946 103.928 228.209H106.071C106.071 231.762 108.952 234.643 112.505 234.643H152.143V236.786ZM112.505 236.786C107.768 236.786 103.928 232.946 103.928 228.209C103.928 223.084 108.083 218.929 113.209 218.929V221.071C109.267 221.071 106.071 224.267 106.071 228.209C106.071 231.762 108.952 234.643 112.505 234.643V236.786Z" fill="black"/>
</g>
<path d="M132.505 137.143C137.039 137.143 140.714 140.818 140.714 145.352V188.571H125V144.648C125 140.503 128.36 137.143 132.505 137.143Z" fill="url(#paint6_linear_13_1185)"/>
<mask id="mask3_13_1185" style="mask-type:luminance" maskUnits="userSpaceOnUse" x="123" y="135" width="20" height="54">
<path d="M142.143 135.714H123.571V188.571H142.143V135.714Z" fill="white"/>
<path d="M132.505 137.143C137.039 137.143 140.714 140.818 140.714 145.352V188.571H125V144.648C125 140.503 128.36 137.143 132.505 137.143Z" fill="black"/>
</mask>
<g mask="url(#mask3_13_1185)">
<path d="M132.505 136.071C137.63 136.071 141.785 140.226 141.785 145.352V188.571H139.643V145.352C139.643 141.41 136.447 138.214 132.505 138.214V136.071ZM123.928 188.571V144.648C123.928 139.911 127.768 136.071 132.505 136.071V138.214C128.952 138.214 126.071 141.095 126.071 144.648V188.571H123.928ZM123.928 144.648C123.928 139.911 127.768 136.071 132.505 136.071C137.63 136.071 141.785 140.226 141.785 145.352H139.643C139.643 141.41 136.447 138.214 132.505 138.214C128.952 138.214 126.071 141.095 126.071 144.648H123.928Z" fill="black"/>
</g>
</g>
<path d="M333.091 266.5V173.409H369.818C376.879 173.409 382.894 174.758 387.864 177.455C392.833 180.121 396.621 183.833 399.227 188.591C401.864 193.318 403.182 198.773 403.182 204.955C403.182 211.136 401.848 216.591 399.182 221.318C396.515 226.045 392.652 229.727 387.591 232.364C382.561 235 376.47 236.318 369.318 236.318H345.909V220.545H366.136C369.924 220.545 373.045 219.894 375.5 218.591C377.985 217.258 379.833 215.424 381.045 213.091C382.288 210.727 382.909 208.015 382.909 204.955C382.909 201.864 382.288 199.167 381.045 196.864C379.833 194.53 377.985 192.727 375.5 191.455C373.015 190.152 369.864 189.5 366.045 189.5H352.773V266.5H333.091ZM450.135 267.864C442.954 267.864 436.772 266.409 431.59 263.5C426.438 260.561 422.469 256.409 419.681 251.045C416.893 245.652 415.499 239.273 415.499 231.909C415.499 224.727 416.893 218.424 419.681 213C422.469 207.576 426.393 203.348 431.454 200.318C436.545 197.288 442.514 195.773 449.363 195.773C453.969 195.773 458.257 196.515 462.226 198C466.226 199.455 469.711 201.652 472.681 204.591C475.681 207.53 478.014 211.227 479.681 215.682C481.348 220.106 482.181 225.288 482.181 231.227V236.545H423.226V224.545H463.954C463.954 221.758 463.348 219.288 462.135 217.136C460.923 214.985 459.242 213.303 457.09 212.091C454.969 210.848 452.499 210.227 449.681 210.227C446.742 210.227 444.135 210.909 441.863 212.273C439.62 213.606 437.863 215.409 436.59 217.682C435.317 219.924 434.666 222.424 434.635 225.182V236.591C434.635 240.045 435.272 243.03 436.545 245.545C437.848 248.061 439.681 250 442.045 251.364C444.408 252.727 447.211 253.409 450.454 253.409C452.605 253.409 454.575 253.106 456.363 252.5C458.151 251.894 459.681 250.985 460.954 249.773C462.226 248.561 463.196 247.076 463.863 245.318L481.772 246.5C480.863 250.803 478.999 254.561 476.181 257.773C473.393 260.955 469.787 263.439 465.363 265.227C460.969 266.985 455.893 267.864 450.135 267.864ZM518.021 226.136V266.5H498.657V196.682H517.112V209H517.93C519.475 204.939 522.066 201.727 525.703 199.364C529.339 196.97 533.748 195.773 538.93 195.773C543.778 195.773 548.006 196.833 551.612 198.955C555.218 201.076 558.021 204.106 560.021 208.045C562.021 211.955 563.021 216.621 563.021 222.045V266.5H543.657V225.5C543.688 221.227 542.597 217.894 540.385 215.5C538.172 213.076 535.127 211.864 531.248 211.864C528.642 211.864 526.339 212.424 524.339 213.545C522.369 214.667 520.824 216.303 519.703 218.455C518.612 220.576 518.051 223.136 518.021 226.136ZM601.486 226.136V266.5H582.122V196.682H600.577V209H601.395C602.94 204.939 605.531 201.727 609.168 199.364C612.804 196.97 617.213 195.773 622.395 195.773C627.243 195.773 631.471 196.833 635.077 198.955C638.683 201.076 641.486 204.106 643.486 208.045C645.486 211.955 646.486 216.621 646.486 222.045V266.5H627.122V225.5C627.153 221.227 626.062 217.894 623.85 215.5C621.637 213.076 618.592 211.864 614.713 211.864C612.107 211.864 609.804 212.424 607.804 213.545C605.834 214.667 604.289 216.303 603.168 218.455C602.077 220.576 601.516 223.136 601.486 226.136ZM675.042 292.682C672.587 292.682 670.284 292.485 668.133 292.091C666.012 291.727 664.254 291.258 662.86 290.682L667.224 276.227C669.496 276.924 671.542 277.303 673.36 277.364C675.208 277.424 676.799 277 678.133 276.091C679.496 275.182 680.602 273.636 681.451 271.455L682.587 268.5L657.542 196.682H677.905L692.36 247.955H693.087L707.678 196.682H728.178L701.042 274.045C699.739 277.803 697.966 281.076 695.724 283.864C693.512 286.682 690.708 288.848 687.315 290.364C683.921 291.909 679.83 292.682 675.042 292.682ZM800.018 216.591L782.291 217.682C781.988 216.167 781.336 214.803 780.336 213.591C779.336 212.348 778.018 211.364 776.382 210.636C774.776 209.879 772.852 209.5 770.609 209.5C767.609 209.5 765.079 210.136 763.018 211.409C760.958 212.652 759.927 214.318 759.927 216.409C759.927 218.076 760.594 219.485 761.927 220.636C763.261 221.788 765.548 222.712 768.791 223.409L781.427 225.955C788.215 227.348 793.276 229.591 796.609 232.682C799.942 235.773 801.609 239.833 801.609 244.864C801.609 249.439 800.261 253.455 797.564 256.909C794.897 260.364 791.23 263.061 786.564 265C781.927 266.909 776.579 267.864 770.518 267.864C761.276 267.864 753.912 265.939 748.427 262.091C742.973 258.212 739.776 252.939 738.836 246.273L757.882 245.273C758.458 248.091 759.852 250.242 762.064 251.727C764.276 253.182 767.109 253.909 770.564 253.909C773.958 253.909 776.685 253.258 778.745 251.955C780.836 250.621 781.897 248.909 781.927 246.818C781.897 245.061 781.155 243.621 779.7 242.5C778.245 241.348 776.003 240.47 772.973 239.864L760.882 237.455C754.064 236.091 748.988 233.727 745.655 230.364C742.352 227 740.7 222.712 740.7 217.5C740.7 213.015 741.912 209.152 744.336 205.909C746.791 202.667 750.23 200.167 754.655 198.409C759.109 196.652 764.321 195.773 770.291 195.773C779.109 195.773 786.048 197.636 791.109 201.364C796.2 205.091 799.17 210.167 800.018 216.591ZM817.642 266.5V196.682H837.006V266.5H817.642ZM827.37 187.682C824.491 187.682 822.021 186.727 819.96 184.818C817.93 182.879 816.915 180.561 816.915 177.864C816.915 175.197 817.93 172.909 819.96 171C822.021 169.061 824.491 168.091 827.37 168.091C830.248 168.091 832.703 169.061 834.733 171C836.794 172.909 837.824 175.197 837.824 177.864C837.824 180.561 836.794 182.879 834.733 184.818C832.703 186.727 830.248 187.682 827.37 187.682ZM876.266 267.818C871.812 267.818 867.842 267.045 864.357 265.5C860.872 263.924 858.115 261.606 856.085 258.545C854.085 255.455 853.085 251.606 853.085 247C853.085 243.121 853.797 239.864 855.221 237.227C856.645 234.591 858.585 232.47 861.039 230.864C863.494 229.258 866.282 228.045 869.403 227.227C872.554 226.409 875.857 225.833 879.312 225.5C883.372 225.076 886.645 224.682 889.13 224.318C891.615 223.924 893.418 223.348 894.539 222.591C895.66 221.833 896.221 220.712 896.221 219.227V218.955C896.221 216.076 895.312 213.848 893.494 212.273C891.706 210.697 889.16 209.909 885.857 209.909C882.372 209.909 879.6 210.682 877.539 212.227C875.478 213.742 874.115 215.652 873.448 217.955L855.539 216.5C856.448 212.258 858.236 208.591 860.903 205.5C863.569 202.379 867.009 199.985 871.221 198.318C875.463 196.621 880.372 195.773 885.948 195.773C889.827 195.773 893.539 196.227 897.085 197.136C900.66 198.045 903.827 199.455 906.585 201.364C909.372 203.273 911.569 205.727 913.175 208.727C914.782 211.697 915.585 215.258 915.585 219.409V266.5H897.221V256.818H896.675C895.554 259 894.054 260.924 892.175 262.591C890.297 264.227 888.039 265.515 885.403 266.455C882.766 267.364 879.721 267.818 876.266 267.818ZM881.812 254.455C884.66 254.455 887.175 253.894 889.357 252.773C891.539 251.621 893.251 250.076 894.494 248.136C895.736 246.197 896.357 244 896.357 241.545V234.136C895.751 234.53 894.918 234.894 893.857 235.227C892.827 235.53 891.66 235.818 890.357 236.091C889.054 236.333 887.751 236.561 886.448 236.773C885.145 236.955 883.963 237.121 882.903 237.273C880.63 237.606 878.645 238.136 876.948 238.864C875.251 239.591 873.933 240.576 872.994 241.818C872.054 243.03 871.585 244.545 871.585 246.364C871.585 249 872.539 251.015 874.448 252.409C876.388 253.773 878.842 254.455 881.812 254.455Z" fill="white"/>
</g>
<defs>
<filter id="filter0_d_13_1185" x="0" y="0" width="1008" height="448" filterUnits="userSpaceOnUse" color-interpolation-filters="sRGB">
<feFlood flood-opacity="0" result="BackgroundImageFix"/>
<feColorMatrix in="SourceAlpha" type="matrix" values="0 0 0 0 0 0 0 0 0 0 0 0 0 0 0 0 0 0 127 0" result="hardAlpha"/>
<feOffset dy="4"/>
<feGaussianBlur stdDeviation="2"/>
<feComposite in2="hardAlpha" operator="out"/>
<feColorMatrix type="matrix" values="0 0 0 0 0 0 0 0 0 0 0 0 0 0 0 0 0 0 0.25 0"/>
<feBlend mode="normal" in2="BackgroundImageFix" result="effect1_dropShadow_13_1185"/>
<feBlend mode="normal" in="SourceGraphic" in2="effect1_dropShadow_13_1185" result="shape"/>
</filter>
<linearGradient id="paint0_linear_13_1185" x1="190.714" y1="127.5" x2="190.714" y2="186.429" gradientUnits="userSpaceOnUse">
<stop stop-color="white"/>
<stop offset="0.652438" stop-color="white"/>
<stop offset="1" stop-color="#E1E5F0"/>
</linearGradient>
<linearGradient id="paint1_linear_13_1185" x1="191.428" y1="178.897" x2="191.428" y2="249.286" gradientUnits="userSpaceOnUse">
<stop offset="0.259615" stop-color="#E1E5F0"/>
<stop offset="0.548077" stop-color="white"/>
<stop offset="0.841346" stop-color="#E1E5F0"/>
</linearGradient>
<linearGradient id="paint2_linear_13_1185" x1="105" y1="169.286" x2="221.071" y2="169.286" gradientUnits="userSpaceOnUse">
<stop offset="0.288462" stop-color="#1D1E2F"/>
<stop offset="0.480769" stop-color="#555C6F"/>
<stop offset="0.692308" stop-color="#19192A"/>
</linearGradient>
<linearGradient id="paint3_linear_13_1185" x1="105" y1="169.286" x2="216.786" y2="169.286" gradientUnits="userSpaceOnUse">
<stop offset="0.360577" stop-color="#D4DAE8"/>
<stop offset="0.634615" stop-color="white"/>
<stop offset="0.951923" stop-color="#E1E5F0"/>
</linearGradient>
<linearGradient id="paint4_linear_13_1185" x1="105" y1="169.286" x2="129.621" y2="169.286" gradientUnits="userSpaceOnUse">
<stop offset="0.0144231" stop-color="white"/>
<stop offset="0.875" stop-color="#A7ADBB"/>
</linearGradient>
<linearGradient id="paint5_linear_13_1185" x1="95" y1="227.857" x2="176.655" y2="228.516" gradientUnits="userSpaceOnUse">
<stop offset="0.105769" stop-color="white"/>
<stop offset="0.673077" stop-color="#E1E5F0"/>
<stop offset="0.855769" stop-color="#E1E5F0"/>
</linearGradient>
<linearGradient id="paint6_linear_13_1185" x1="132.857" y1="109.286" x2="132.857" y2="188.571" gradientUnits="userSpaceOnUse">
<stop stop-color="white"/>
<stop offset="0.621063" stop-color="white"/>
<stop offset="1" stop-color="#E1E5F0"/>
</linearGradient>
<clipPath id="clip0_13_1185">
<rect width="200" height="200" fill="white" transform="translate(85 120)"/>
</clipPath>
</defs>
</svg>
