<svg width="1000" height="440" viewBox="0 0 1000 440" fill="none" xmlns="http://www.w3.org/2000/svg">
<rect width="1000" height="440" fill="white"/>
<g clip-path="url(#clip0_13_1148)">
<path d="M291 120H91V320H291V120Z" fill="white"/>
<path d="M131 161.429H200.286C203.047 161.429 205.286 163.667 205.286 166.429V265C205.286 285.514 188.656 302.143 168.143 302.143C147.629 302.143 131 285.514 131 265V161.429Z" fill="#19192A"/>
<path d="M131 235.714V166.429C131 163.667 133.239 161.429 136 161.429H234.571C255.085 161.429 271.714 178.058 271.714 198.571C271.714 219.085 255.085 235.714 234.571 235.714H131Z" fill="#19192A"/>
<path d="M196.703 137.143C201.443 137.143 205.286 140.985 205.286 145.725V235.714H188.857V144.989C188.857 140.656 192.37 137.143 196.703 137.143Z" fill="url(#paint0_linear_13_1148)"/>
<path d="M205.286 190.714V249.286H189.571V190.714H205.286Z" fill="url(#paint1_linear_13_1148)"/>
<mask id="mask0_13_1148" style="mask-type:luminance" maskUnits="userSpaceOnUse" x="188" y="190" width="19" height="60">
<path d="M206.714 190.714H188.143V249.286H206.714V190.714Z" fill="white"/>
<path d="M205.286 190.714V249.286H189.572V190.714H205.286Z" fill="black"/>
</mask>
<g mask="url(#mask0_13_1148)">
<path d="M205.286 190.714H204.214V249.286H205.286H206.357V190.714H205.286ZM189.571 249.286H190.643V190.714H189.571H188.5V249.286H189.571Z" fill="white"/>
</g>
<path d="M111 169.637C111 165.104 114.675 161.429 119.209 161.429H205.286V177.143H118.505C114.36 177.143 111 173.783 111 169.637Z" fill="url(#paint2_linear_13_1148)"/>
<path d="M111 169.637C111 165.104 114.675 161.429 119.209 161.429H226.714V177.143H118.505C114.36 177.143 111 173.783 111 169.637Z" fill="url(#paint3_linear_13_1148)"/>
<mask id="mask1_13_1148" style="mask-type:luminance" maskUnits="userSpaceOnUse" x="109" y="160" width="118" height="19">
<path d="M226.714 160H109.571V178.571H226.714V160Z" fill="white"/>
<path d="M111 169.637C111 165.104 114.675 161.429 119.209 161.429H226.714V177.143H118.505C114.36 177.143 111 173.783 111 169.637Z" fill="black"/>
</mask>
<g mask="url(#mask1_13_1148)">
<path d="M109.928 169.638C109.928 164.512 114.083 160.357 119.209 160.357H226.714V162.5H119.209C115.267 162.5 112.071 165.696 112.071 169.638H109.928ZM226.714 178.214H118.505C113.768 178.214 109.928 174.374 109.928 169.638H112.071C112.071 173.191 114.952 176.071 118.505 176.071H226.714V178.214ZM118.505 178.214C113.768 178.214 109.928 174.374 109.928 169.638C109.928 164.512 114.083 160.357 119.209 160.357V162.5C115.267 162.5 112.071 165.696 112.071 169.638C112.071 173.191 114.952 176.071 118.505 176.071V178.214Z" fill="white"/>
</g>
<path d="M111 169.637C111 165.104 114.675 161.429 119.209 161.429H131V177.143H118.505C114.36 177.143 111 173.783 111 169.637Z" fill="url(#paint4_linear_13_1148)"/>
<path d="M146.714 235.714H189.571V264.286C189.571 276.121 179.978 285.714 168.143 285.714C156.308 285.714 146.714 276.121 146.714 264.286V235.714Z" fill="white"/>
<path d="M205.286 220V177.143H233.857C245.692 177.143 255.286 186.737 255.286 198.571C255.286 210.406 245.692 220 233.857 220H205.286Z" fill="white"/>
<path d="M138.505 137.143C143.039 137.143 146.714 140.818 146.714 145.352V235.714H131V144.648C131 140.503 134.36 137.143 138.505 137.143Z" fill="#19192A"/>
<path d="M146.714 220V177.143H189.571V220H146.714Z" fill="white"/>
<path d="M111 228.209C111 223.675 114.675 220 119.209 220H158.143V235.714H118.505C114.36 235.714 111 232.354 111 228.209Z" fill="url(#paint5_linear_13_1148)"/>
<mask id="mask2_13_1148" style="mask-type:luminance" maskUnits="userSpaceOnUse" x="109" y="218" width="50" height="20">
<path d="M158.143 218.571H109.571V237.143H158.143V218.571Z" fill="white"/>
<path d="M111 228.209C111 223.675 114.675 220 119.209 220H158.143V235.714H118.505C114.36 235.714 111 232.354 111 228.209Z" fill="black"/>
</mask>
<g mask="url(#mask2_13_1148)">
<path d="M109.928 228.209C109.928 223.084 114.083 218.929 119.209 218.929H158.143V221.071H119.209C115.267 221.071 112.071 224.267 112.071 228.209H109.928ZM158.143 236.786H118.505C113.768 236.786 109.928 232.946 109.928 228.209H112.071C112.071 231.762 114.952 234.643 118.505 234.643H158.143V236.786ZM118.505 236.786C113.768 236.786 109.928 232.946 109.928 228.209C109.928 223.084 114.083 218.929 119.209 218.929V221.071C115.267 221.071 112.071 224.267 112.071 228.209C112.071 231.762 114.952 234.643 118.505 234.643V236.786Z" fill="white"/>
</g>
<path d="M138.505 137.143C143.039 137.143 146.714 140.818 146.714 145.352V188.571H131V144.648C131 140.503 134.36 137.143 138.505 137.143Z" fill="url(#paint6_linear_13_1148)"/>
<mask id="mask3_13_1148" style="mask-type:luminance" maskUnits="userSpaceOnUse" x="129" y="135" width="20" height="54">
<path d="M148.143 135.714H129.571V188.571H148.143V135.714Z" fill="white"/>
<path d="M138.505 137.143C143.039 137.143 146.714 140.818 146.714 145.352V188.571H131V144.648C131 140.503 134.36 137.143 138.505 137.143Z" fill="black"/>
</mask>
<g mask="url(#mask3_13_1148)">
<path d="M138.505 136.071C143.63 136.071 147.785 140.226 147.785 145.352V188.571H145.643V145.352C145.643 141.41 142.447 138.214 138.505 138.214V136.071ZM129.928 188.571V144.648C129.928 139.911 133.768 136.071 138.505 136.071V138.214C134.952 138.214 132.071 141.095 132.071 144.648V188.571H129.928ZM129.928 144.648C129.928 139.911 133.768 136.071 138.505 136.071C143.63 136.071 147.785 140.226 147.785 145.352H145.643C145.643 141.41 142.447 138.214 138.505 138.214C134.952 138.214 132.071 141.095 132.071 144.648H129.928Z" fill="white"/>
</g>
</g>
<path d="M319.091 266.5V173.409H355.818C362.879 173.409 368.894 174.758 373.864 177.455C378.833 180.121 382.621 183.833 385.227 188.591C387.864 193.318 389.182 198.773 389.182 204.955C389.182 211.136 387.848 216.591 385.182 221.318C382.515 226.045 378.652 229.727 373.591 232.364C368.561 235 362.47 236.318 355.318 236.318H331.909V220.545H352.136C355.924 220.545 359.045 219.894 361.5 218.591C363.985 217.258 365.833 215.424 367.045 213.091C368.288 210.727 368.909 208.015 368.909 204.955C368.909 201.864 368.288 199.167 367.045 196.864C365.833 194.53 363.985 192.727 361.5 191.455C359.015 190.152 355.864 189.5 352.045 189.5H338.773V266.5H319.091ZM436.135 267.864C428.954 267.864 422.772 266.409 417.59 263.5C412.438 260.561 408.469 256.409 405.681 251.045C402.893 245.652 401.499 239.273 401.499 231.909C401.499 224.727 402.893 218.424 405.681 213C408.469 207.576 412.393 203.348 417.454 200.318C422.545 197.288 428.514 195.773 435.363 195.773C439.969 195.773 444.257 196.515 448.226 198C452.226 199.455 455.711 201.652 458.681 204.591C461.681 207.53 464.014 211.227 465.681 215.682C467.348 220.106 468.181 225.288 468.181 231.227V236.545H409.226V224.545H449.954C449.954 221.758 449.348 219.288 448.135 217.136C446.923 214.985 445.242 213.303 443.09 212.091C440.969 210.848 438.499 210.227 435.681 210.227C432.742 210.227 430.135 210.909 427.863 212.273C425.62 213.606 423.863 215.409 422.59 217.682C421.317 219.924 420.666 222.424 420.635 225.182V236.591C420.635 240.045 421.272 243.03 422.545 245.545C423.848 248.061 425.681 250 428.045 251.364C430.408 252.727 433.211 253.409 436.454 253.409C438.605 253.409 440.575 253.106 442.363 252.5C444.151 251.894 445.681 250.985 446.954 249.773C448.226 248.561 449.196 247.076 449.863 245.318L467.772 246.5C466.863 250.803 464.999 254.561 462.181 257.773C459.393 260.955 455.787 263.439 451.363 265.227C446.969 266.985 441.893 267.864 436.135 267.864ZM504.021 226.136V266.5H484.657V196.682H503.112V209H503.93C505.475 204.939 508.066 201.727 511.703 199.364C515.339 196.97 519.748 195.773 524.93 195.773C529.778 195.773 534.006 196.833 537.612 198.955C541.218 201.076 544.021 204.106 546.021 208.045C548.021 211.955 549.021 216.621 549.021 222.045V266.5H529.657V225.5C529.688 221.227 528.597 217.894 526.385 215.5C524.172 213.076 521.127 211.864 517.248 211.864C514.642 211.864 512.339 212.424 510.339 213.545C508.369 214.667 506.824 216.303 505.703 218.455C504.612 220.576 504.051 223.136 504.021 226.136ZM587.486 226.136V266.5H568.122V196.682H586.577V209H587.395C588.94 204.939 591.531 201.727 595.168 199.364C598.804 196.97 603.213 195.773 608.395 195.773C613.243 195.773 617.471 196.833 621.077 198.955C624.683 201.076 627.486 204.106 629.486 208.045C631.486 211.955 632.486 216.621 632.486 222.045V266.5H613.122V225.5C613.153 221.227 612.062 217.894 609.85 215.5C607.637 213.076 604.592 211.864 600.713 211.864C598.107 211.864 595.804 212.424 593.804 213.545C591.834 214.667 590.289 216.303 589.168 218.455C588.077 220.576 587.516 223.136 587.486 226.136ZM661.042 292.682C658.587 292.682 656.284 292.485 654.133 292.091C652.012 291.727 650.254 291.258 648.86 290.682L653.224 276.227C655.496 276.924 657.542 277.303 659.36 277.364C661.208 277.424 662.799 277 664.133 276.091C665.496 275.182 666.602 273.636 667.451 271.455L668.587 268.5L643.542 196.682H663.905L678.36 247.955H679.087L693.678 196.682H714.178L687.042 274.045C685.739 277.803 683.966 281.076 681.724 283.864C679.512 286.682 676.708 288.848 673.315 290.364C669.921 291.909 665.83 292.682 661.042 292.682ZM786.018 216.591L768.291 217.682C767.988 216.167 767.336 214.803 766.336 213.591C765.336 212.348 764.018 211.364 762.382 210.636C760.776 209.879 758.852 209.5 756.609 209.5C753.609 209.5 751.079 210.136 749.018 211.409C746.958 212.652 745.927 214.318 745.927 216.409C745.927 218.076 746.594 219.485 747.927 220.636C749.261 221.788 751.548 222.712 754.791 223.409L767.427 225.955C774.215 227.348 779.276 229.591 782.609 232.682C785.942 235.773 787.609 239.833 787.609 244.864C787.609 249.439 786.261 253.455 783.564 256.909C780.897 260.364 777.23 263.061 772.564 265C767.927 266.909 762.579 267.864 756.518 267.864C747.276 267.864 739.912 265.939 734.427 262.091C728.973 258.212 725.776 252.939 724.836 246.273L743.882 245.273C744.458 248.091 745.852 250.242 748.064 251.727C750.276 253.182 753.109 253.909 756.564 253.909C759.958 253.909 762.685 253.258 764.745 251.955C766.836 250.621 767.897 248.909 767.927 246.818C767.897 245.061 767.155 243.621 765.7 242.5C764.245 241.348 762.003 240.47 758.973 239.864L746.882 237.455C740.064 236.091 734.988 233.727 731.655 230.364C728.352 227 726.7 222.712 726.7 217.5C726.7 213.015 727.912 209.152 730.336 205.909C732.791 202.667 736.23 200.167 740.655 198.409C745.109 196.652 750.321 195.773 756.291 195.773C765.109 195.773 772.048 197.636 777.109 201.364C782.2 205.091 785.17 210.167 786.018 216.591ZM803.642 266.5V196.682H823.006V266.5H803.642ZM813.37 187.682C810.491 187.682 808.021 186.727 805.96 184.818C803.93 182.879 802.915 180.561 802.915 177.864C802.915 175.197 803.93 172.909 805.96 171C808.021 169.061 810.491 168.091 813.37 168.091C816.248 168.091 818.703 169.061 820.733 171C822.794 172.909 823.824 175.197 823.824 177.864C823.824 180.561 822.794 182.879 820.733 184.818C818.703 186.727 816.248 187.682 813.37 187.682ZM862.266 267.818C857.812 267.818 853.842 267.045 850.357 265.5C846.872 263.924 844.115 261.606 842.085 258.545C840.085 255.455 839.085 251.606 839.085 247C839.085 243.121 839.797 239.864 841.221 237.227C842.645 234.591 844.585 232.47 847.039 230.864C849.494 229.258 852.282 228.045 855.403 227.227C858.554 226.409 861.857 225.833 865.312 225.5C869.372 225.076 872.645 224.682 875.13 224.318C877.615 223.924 879.418 223.348 880.539 222.591C881.66 221.833 882.221 220.712 882.221 219.227V218.955C882.221 216.076 881.312 213.848 879.494 212.273C877.706 210.697 875.16 209.909 871.857 209.909C868.372 209.909 865.6 210.682 863.539 212.227C861.478 213.742 860.115 215.652 859.448 217.955L841.539 216.5C842.448 212.258 844.236 208.591 846.903 205.5C849.569 202.379 853.009 199.985 857.221 198.318C861.463 196.621 866.372 195.773 871.948 195.773C875.827 195.773 879.539 196.227 883.085 197.136C886.66 198.045 889.827 199.455 892.585 201.364C895.372 203.273 897.569 205.727 899.175 208.727C900.782 211.697 901.585 215.258 901.585 219.409V266.5H883.221V256.818H882.675C881.554 259 880.054 260.924 878.175 262.591C876.297 264.227 874.039 265.515 871.403 266.455C868.766 267.364 865.721 267.818 862.266 267.818ZM867.812 254.455C870.66 254.455 873.175 253.894 875.357 252.773C877.539 251.621 879.251 250.076 880.494 248.136C881.736 246.197 882.357 244 882.357 241.545V234.136C881.751 234.53 880.918 234.894 879.857 235.227C878.827 235.53 877.66 235.818 876.357 236.091C875.054 236.333 873.751 236.561 872.448 236.773C871.145 236.955 869.963 237.121 868.903 237.273C866.63 237.606 864.645 238.136 862.948 238.864C861.251 239.591 859.933 240.576 858.994 241.818C858.054 243.03 857.585 244.545 857.585 246.364C857.585 249 858.539 251.015 860.448 252.409C862.388 253.773 864.842 254.455 867.812 254.455Z" fill="#0F0F0F"/>
<defs>
<linearGradient id="paint0_linear_13_1148" x1="197.071" y1="137.143" x2="197.071" y2="235.714" gradientUnits="userSpaceOnUse">
<stop offset="0.0961538" stop-color="#2E2F46"/>
<stop offset="1" stop-color="#19192A"/>
</linearGradient>
<linearGradient id="paint1_linear_13_1148" x1="197.428" y1="178.897" x2="197.428" y2="249.286" gradientUnits="userSpaceOnUse">
<stop offset="0.259615" stop-color="#25253A"/>
<stop offset="0.548077" stop-color="#434858"/>
<stop offset="0.841346" stop-color="#19192A"/>
</linearGradient>
<linearGradient id="paint2_linear_13_1148" x1="111" y1="169.286" x2="227.071" y2="169.286" gradientUnits="userSpaceOnUse">
<stop offset="0.288462" stop-color="#1D1E2F"/>
<stop offset="0.480769" stop-color="#555C6F"/>
<stop offset="0.692308" stop-color="#19192A"/>
</linearGradient>
<linearGradient id="paint3_linear_13_1148" x1="111" y1="169.286" x2="222.786" y2="169.286" gradientUnits="userSpaceOnUse">
<stop offset="0.369251" stop-color="#1D1E2F"/>
<stop offset="0.634689" stop-color="#424859"/>
<stop offset="0.951923" stop-color="#19192A"/>
</linearGradient>
<linearGradient id="paint4_linear_13_1148" x1="111" y1="169.286" x2="135.621" y2="169.286" gradientUnits="userSpaceOnUse">
<stop offset="0.0144231" stop-color="#555C6F"/>
<stop offset="0.875" stop-color="#19192A"/>
</linearGradient>
<linearGradient id="paint5_linear_13_1148" x1="111" y1="227.857" x2="182.655" y2="228.479" gradientUnits="userSpaceOnUse">
<stop offset="0.0833187" stop-color="#555C6F"/>
<stop offset="0.42315" stop-color="#1D1E2F"/>
<stop offset="0.71218" stop-color="#19192A"/>
</linearGradient>
<linearGradient id="paint6_linear_13_1148" x1="138.857" y1="137.143" x2="138.857" y2="176.173" gradientUnits="userSpaceOnUse">
<stop stop-color="#555C6F"/>
<stop offset="1" stop-color="#19192A"/>
</linearGradient>
<clipPath id="clip0_13_1148">
<rect width="200" height="200" fill="white" transform="translate(91 120)"/>
</clipPath>
</defs>
</svg>
