<svg width="314" height="246" fill="none" xmlns="http://www.w3.org/2000/svg"><path fill="url(#a)" d="M0 199.964h273.412V240H0z"/><g filter="url(#b)"><rect x="189.4" y="206.133" width="32.933" height="28.533" rx="14.267" fill="#fff"/><path d="M205 200c-11.046 0-20 8.954-20 20s8.954 20 20 20 20-8.954 20-20-8.954-20-20-20zm-6.22 8.357c.39-.065.791.001 1.139.188l5.582 3.245a1.545 1.545 0 0 1 .832 1.412v2.186l-2.603 1.552v-2.256a1.691 1.691 0 0 0-.847-1.412l-3.033-1.694a1.797 1.797 0 0 0-1.693 0l-3.034 1.693a1.56 1.56 0 0 0-.847 1.413v3.523a1.702 1.702 0 0 0 .847 1.413l3.034 1.765a1.796 1.796 0 0 0 1.693 0l3.817-2.258 2.666-1.482 3.817-2.257a1.8 1.8 0 0 1 1.693 0l5.644 3.243a1.551 1.551 0 0 1 .847 1.411v6.562a1.696 1.696 0 0 1-.84 1.41l-5.643 3.245a1.793 1.793 0 0 1-1.695 0l-5.643-3.243a1.556 1.556 0 0 1-.846-1.413v-2.256l2.533-1.481v2.266a1.689 1.689 0 0 0 .847 1.411l3.034 1.693a1.796 1.796 0 0 0 1.693 0l3.033-1.763a1.549 1.549 0 0 0 .846-1.41v-3.458a1.694 1.694 0 0 0-.846-1.412l-3.033-1.693a1.802 1.802 0 0 0-1.693 0l-3.804 2.18-2.61 1.552-3.817 2.187a1.8 1.8 0 0 1-1.693 0l-5.644-3.252a1.554 1.554 0 0 1-.847-1.405v-6.56a1.44 1.44 0 0 1 .917-1.413l5.643-3.244a1.78 1.78 0 0 1 .554-.188z" fill="url(#c)"/></g><path fill="url(#d)" d="M27.077 97.129h273.198v40.036H27.077z"/><g filter="url(#e)"><rect x="236.896" y="103.528" width="30.938" height="27.844" rx="13.922" fill="#fff"/><path d="m250.272 117.233-1.192 4.831c1.471.369 6.008 1.842 6.678-.883.701-2.842-4.015-3.577-5.486-3.948zm1.625-6.592-1.08 4.381c1.225.309 5.001 1.568 5.612-.911.638-2.585-3.307-3.161-4.532-3.47zM252 97a20 20 0 0 0-19.616 23.902 20.004 20.004 0 0 0 15.714 15.714A20 20 0 1 0 252 97zm8.716 17.151a3.482 3.482 0 0 1-2.771 3.222 3.866 3.866 0 0 1 1.994 5.322c-1.171 3.384-3.953 3.67-7.653 2.961l-.898 3.64-2.17-.547.887-3.591a82.125 82.125 0 0 1-1.729-.453l-.89 3.607-2.167-.547.898-3.646c-.507-.131-1.022-.271-1.547-.404l-2.823-.712 1.077-2.512s1.598.43 1.577.399a.802.802 0 0 0 .606-.053.8.8 0 0 0 .388-.469l2.435-9.875a1.166 1.166 0 0 0-1.011-1.277c.034-.023-1.576-.396-1.576-.396l.577-2.344 2.992.756-.002.011c.45.113.913.221 1.386.33l.889-3.604 2.168.547-.871 3.533c.582.134 1.168.27 1.738.414l.866-3.51 2.169.547-.888 3.605c2.739.954 4.742 2.385 4.349 5.046z" fill="url(#f)"/></g><path fill="url(#g)" d="M18 42h116v40H18z"/><g filter="url(#h)"><g clip-path="url(#i)"><path d="M134 82c-11.031 0-20-8.969-20-20s8.969-20 20-20 20 8.969 20 20-8.969 20-20 20z" fill="url(#j)"/><path d="M134.375 69.25v7.094L143.156 64l-8.781 5.25zm8.469-7.531-8.469-14.063v10.219l8.469 3.844zm-8.469-3.063v8.75l8.406-4.906-8.406-3.844zm-9.188 3.063 8.438-14.063v10.219l-8.438 3.844zm8.438-3.063v8.75l-8.406-4.906 8.406-3.844zm0 10.594v7.094L124.844 64l8.781 5.25z" fill="#fff"/></g></g><path fill="url(#k)" d="M26.874 2.019H314v40.018H26.874z"/><g filter="url(#l)"><path d="M177 42a20 20 0 1 0 0-40 20 20 0 0 0 0 40z" fill="url(#m)"/><path d="M177 42a20 20 0 1 0 0-40 20 20 0 0 0 0 40z" fill="url(#n)"/><path d="M182.237 16.53a4.098 4.098 0 0 0-3.871-2.736h-3.175a3.662 3.662 0 0 0-.782 7.24l4.834 1.058a4.102 4.102 0 0 1 3.201 4.45 4.105 4.105 0 0 1-4.078 3.664h-2.732a4.094 4.094 0 0 1-3.871-2.738M177 13.794V9.692zm0 20.514v-4.102z" fill="url(#o)"/><path d="M182.237 16.53a4.098 4.098 0 0 0-3.871-2.736h-3.175a3.662 3.662 0 0 0-.782 7.24l4.834 1.058a4.102 4.102 0 0 1 3.201 4.45 4.105 4.105 0 0 1-4.078 3.664h-2.732a4.094 4.094 0 0 1-3.871-2.738M177 13.794V9.692m0 24.616v-4.102" stroke="#fff" stroke-width="2" stroke-linecap="round" stroke-linejoin="round"/></g><path fill="url(#p)" d="M25.187 147.165h218.559v40.036H25.187z"/><g filter="url(#q)"><rect x="40.467" y="154.733" width="31.2" height="24.533" rx="12.267" fill="#fff"/><path fill-rule="evenodd" clip-rule="evenodd" d="M55 187c-11.046 0-20-8.954-20-20s8.954-20 20-20 20 8.954 20 20-8.954 20-20 20zm2.403-22.759v-2.957h6.767v-4.51H45.744v4.51h6.767v2.956c-5.5.252-9.636 1.342-9.636 2.647 0 1.305 4.136 2.394 9.636 2.648v9.478h4.892v-9.481c5.49-.252 9.617-1.341 9.617-2.645 0-1.303-4.126-2.392-9.617-2.646zm0 4.488v-.003c-.138.01-.847.053-2.428.053-1.263 0-2.151-.038-2.464-.053v.004c-4.86-.214-8.487-1.06-8.487-2.073 0-1.012 3.627-1.857 8.487-2.075v3.305c.318.023 1.228.077 2.485.077 1.509 0 2.265-.063 2.407-.075v-3.304c4.85.216 8.468 1.062 8.468 2.072 0 1.013-3.618 1.857-8.468 2.072z" fill="url(#r)"/></g><defs><linearGradient id="k" x1="314" y1="22.028" x2="26.874" y2="22.028" gradientUnits="userSpaceOnUse"><stop offset=".168" stop-color="#fff"/><stop offset=".486" stop-color="#D3E8FB"/><stop offset=".534" stop-color="#fff"/></linearGradient><linearGradient id="g" x1="134" y1="62" x2="18" y2="62" gradientUnits="userSpaceOnUse"><stop stop-color="#fff"/><stop stop-color="#D0CDFF"/><stop offset="1" stop-color="#fff"/></linearGradient><linearGradient id="c" x1="205" y1="184" x2="205" y2="244.067" gradientUnits="userSpaceOnUse"><stop stop-color="#D67DEE"/><stop offset=".704" stop-color="#7F2C96"/></linearGradient><linearGradient id="d" x1="300.276" y1="117.147" x2="27.077" y2="117.147" gradientUnits="userSpaceOnUse"><stop offset=".168" stop-color="#fff"/><stop offset=".168" stop-color="#FFF8DF"/><stop offset="1" stop-color="#fff"/></linearGradient><linearGradient id="f" x1="252" y1="88.031" x2="252" y2="131.906" gradientUnits="userSpaceOnUse"><stop stop-color="#FFD882"/><stop offset="1" stop-color="#E9AE2A"/></linearGradient><linearGradient id="j" x1="134" y1="42" x2="134" y2="82" gradientUnits="userSpaceOnUse"><stop stop-color="#B1ADFF"/><stop offset="1" stop-color="#6059DF"/></linearGradient><linearGradient id="a" x1="273.412" y1="219.982" x2="0" y2="219.982" gradientUnits="userSpaceOnUse"><stop offset=".168" stop-color="#fff"/><stop offset=".303" stop-color="#EFDCFF"/><stop offset=".707" stop-color="#fff"/></linearGradient><linearGradient id="m" x1="177" y1="-14.923" x2="177" y2="42" gradientUnits="userSpaceOnUse"><stop stop-color="#6083F9"/><stop offset=".793" stop-color="#2A4191"/></linearGradient><linearGradient id="n" x1="177" y1="-14.923" x2="177" y2="42" gradientUnits="userSpaceOnUse"><stop stop-color="#6083F9"/><stop offset=".793" stop-color="#2A4191"/></linearGradient><linearGradient id="o" x1="176.996" y1="-.722" x2="176.996" y2="34.308" gradientUnits="userSpaceOnUse"><stop stop-color="#6083F9"/><stop offset=".793" stop-color="#2A4191"/></linearGradient><linearGradient id="p" x1="243.746" y1="167.184" x2="20.452" y2="167.184" gradientUnits="userSpaceOnUse"><stop offset=".317" stop-color="#fff"/><stop offset=".736" stop-color="#D8FDDA"/><stop offset=".947" stop-color="#fff"/></linearGradient><linearGradient id="r" x1="55" y1="144" x2="55" y2="187" gradientUnits="userSpaceOnUse"><stop stop-color="#4BDD8D"/><stop offset="1" stop-color="#1A8652"/></linearGradient><filter id="l" x="154" y="0" width="48" height="48" filterUnits="userSpaceOnUse" color-interpolation-filters="sRGB"><feFlood flood-opacity="0" result="BackgroundImageFix"/><feColorMatrix in="SourceAlpha" values="0 0 0 0 0 0 0 0 0 0 0 0 0 0 0 0 0 0 127 0" result="hardAlpha"/><feOffset dx="1" dy="2"/><feGaussianBlur stdDeviation="2"/><feComposite in2="hardAlpha" operator="out"/><feColorMatrix values="0 0 0 0 0.0292365 0 0 0 0 0.0156636 0 0 0 0 0.219257 0 0 0 0.15 0"/><feBlend in2="BackgroundImageFix" result="effect1_dropShadow_68_50"/><feBlend in="SourceGraphic" in2="effect1_dropShadow_68_50" result="shape"/></filter><filter id="q" x="32" y="145" width="48" height="48" filterUnits="userSpaceOnUse" color-interpolation-filters="sRGB"><feFlood flood-opacity="0" result="BackgroundImageFix"/><feColorMatrix in="SourceAlpha" values="0 0 0 0 0 0 0 0 0 0 0 0 0 0 0 0 0 0 127 0" result="hardAlpha"/><feOffset dx="1" dy="2"/><feGaussianBlur stdDeviation="2"/><feComposite in2="hardAlpha" operator="out"/><feColorMatrix values="0 0 0 0 0.0122551 0 0 0 0 0.324012 0 0 0 0 0.116174 0 0 0 0.15 0"/><feBlend in2="BackgroundImageFix" result="effect1_dropShadow_68_50"/><feBlend in="SourceGraphic" in2="effect1_dropShadow_68_50" result="shape"/></filter><filter id="e" x="227" y="95" width="48" height="48" filterUnits="userSpaceOnUse" color-interpolation-filters="sRGB"><feFlood flood-opacity="0" result="BackgroundImageFix"/><feColorMatrix in="SourceAlpha" values="0 0 0 0 0 0 0 0 0 0 0 0 0 0 0 0 0 0 127 0" result="hardAlpha"/><feOffset dx="-1" dy="2"/><feGaussianBlur stdDeviation="2"/><feComposite in2="hardAlpha" operator="out"/><feColorMatrix values="0 0 0 0 0.275259 0 0 0 0 0.175745 0 0 0 0 0.00385636 0 0 0 0.15 0"/><feBlend in2="BackgroundImageFix" result="effect1_dropShadow_68_50"/><feBlend in="SourceGraphic" in2="effect1_dropShadow_68_50" result="shape"/></filter><filter id="b" x="180" y="198" width="48" height="48" filterUnits="userSpaceOnUse" color-interpolation-filters="sRGB"><feFlood flood-opacity="0" result="BackgroundImageFix"/><feColorMatrix in="SourceAlpha" values="0 0 0 0 0 0 0 0 0 0 0 0 0 0 0 0 0 0 127 0" result="hardAlpha"/><feOffset dx="-1" dy="2"/><feGaussianBlur stdDeviation="2"/><feComposite in2="hardAlpha" operator="out"/><feColorMatrix values="0 0 0 0 0.203911 0 0 0 0 0.0142718 0 0 0 0 0.207125 0 0 0 0.15 0"/><feBlend in2="BackgroundImageFix" result="effect1_dropShadow_68_50"/><feBlend in="SourceGraphic" in2="effect1_dropShadow_68_50" result="shape"/></filter><filter id="h" x="109.3" y="40.3" width="47.4" height="47.4" filterUnits="userSpaceOnUse" color-interpolation-filters="sRGB"><feFlood flood-opacity="0" result="BackgroundImageFix"/><feColorMatrix in="SourceAlpha" values="0 0 0 0 0 0 0 0 0 0 0 0 0 0 0 0 0 0 127 0" result="hardAlpha"/><feOffset dx="-1" dy="2"/><feGaussianBlur stdDeviation="1.85"/><feComposite in2="hardAlpha" operator="out"/><feColorMatrix values="0 0 0 0 0.147192 0 0 0 0 0 0 0 0 0 0.252329 0 0 0 0.15 0"/><feBlend in2="BackgroundImageFix" result="effect1_dropShadow_68_50"/><feBlend in="SourceGraphic" in2="effect1_dropShadow_68_50" result="shape"/></filter><clipPath id="i"><rect x="114" y="42" width="40" height="40" rx="20" fill="#fff"/></clipPath></defs></svg>