<svg width="1000" height="440" fill="none" xmlns="http://www.w3.org/2000/svg"><path fill="#000" d="M0 0h1000v440H0z"/><g clip-path="url(#a)"><path d="M281 120H81v200h200V120z" fill="#000"/><path d="M121 161.428h69.286a5 5 0 0 1 5 5V265c0 20.513-16.63 37.143-37.143 37.143-20.514 0-37.143-16.63-37.143-37.143V161.428z" fill="#E1E5F0"/><path d="M121 235.714v-69.286a5 5 0 0 1 5-5h98.571c20.514 0 37.143 16.63 37.143 37.143 0 20.514-16.629 37.143-37.143 37.143H121z" fill="#E1E5F0"/><path d="M186.704 137.143a8.582 8.582 0 0 1 8.582 8.582v89.989h-16.429v-90.725a7.847 7.847 0 0 1 7.847-7.846z" fill="#E1E5F0"/><path d="M195.286 190.714v58.572h-15.715v-58.572h15.715z" fill="#E1E5F0"/><mask id="b" style="mask-type:luminance" maskUnits="userSpaceOnUse" x="178" y="190" width="19" height="60"><path d="M196.714 190.714h-18.571v58.572h18.571v-58.572z" fill="#fff"/><path d="M195.286 190.714v58.572h-15.715v-58.572h15.715z" fill="#000"/></mask><g mask="url(#b)"><path d="M195.286 190.714h-1.072v58.572h2.143v-58.572h-1.071zm-15.715 58.572h1.072v-58.572H178.5v58.572h1.071z" fill="#000"/></g><path d="M101 169.637a8.21 8.21 0 0 1 8.209-8.209h86.077v15.715h-86.781a7.506 7.506 0 0 1-7.505-7.506z" fill="#E1E5F0"/><path d="M101 169.637a8.21 8.21 0 0 1 8.209-8.209h107.505v15.715H108.505a7.506 7.506 0 0 1-7.505-7.506z" fill="#E1E5F0"/><mask id="c" style="mask-type:luminance" maskUnits="userSpaceOnUse" x="99" y="160" width="118" height="19"><path d="M216.714 160H99.571v18.571h117.143V160z" fill="#fff"/><path d="M101 169.637a8.21 8.21 0 0 1 8.209-8.209h107.505v15.715H108.505a7.506 7.506 0 0 1-7.505-7.506z" fill="#000"/></mask><g mask="url(#c)"><path d="M99.929 169.638a9.28 9.28 0 0 1 9.28-9.281h107.505v2.143H109.209a7.137 7.137 0 0 0-7.137 7.138h-2.143zm116.785 8.576H108.505a8.577 8.577 0 0 1-8.576-8.576h2.143a6.433 6.433 0 0 0 6.433 6.433h108.209v2.143zm-108.209 0a8.577 8.577 0 0 1-8.576-8.576 9.28 9.28 0 0 1 9.28-9.281v2.143a7.137 7.137 0 0 0-7.137 7.138 6.433 6.433 0 0 0 6.433 6.433v2.143z" fill="#000"/></g><path d="M101 169.637a8.21 8.21 0 0 1 8.209-8.209H121v15.715h-12.495a7.506 7.506 0 0 1-7.505-7.506z" fill="#E1E5F0"/><path d="M136.714 235.714h42.857v28.572c0 11.835-9.594 21.428-21.429 21.428-11.834 0-21.428-9.593-21.428-21.428v-28.572zM195.286 220v-42.857h28.572c11.835 0 21.428 9.594 21.428 21.428 0 11.835-9.593 21.429-21.428 21.429h-28.572z" fill="#000"/><path d="M128.505 137.143a8.209 8.209 0 0 1 8.209 8.209v90.362H121v-91.066a7.505 7.505 0 0 1 7.505-7.505z" fill="#E1E5F0"/><path d="M136.714 220v-42.857h42.857V220h-42.857z" fill="#000"/><path d="M101 228.209a8.209 8.209 0 0 1 8.209-8.209h38.934v15.714h-39.638a7.505 7.505 0 0 1-7.505-7.505z" fill="#E1E5F0"/><mask id="d" style="mask-type:luminance" maskUnits="userSpaceOnUse" x="99" y="218" width="50" height="20"><path d="M148.143 218.572H99.571v18.571h48.572v-18.571z" fill="#fff"/><path d="M101 228.209a8.209 8.209 0 0 1 8.209-8.209h38.934v15.714h-39.638a7.505 7.505 0 0 1-7.505-7.505z" fill="#000"/></mask><g mask="url(#d)"><path d="M99.929 228.209a9.28 9.28 0 0 1 9.28-9.28h38.934v2.143h-38.934a7.137 7.137 0 0 0-7.137 7.137h-2.143zm48.214 8.577h-39.638a8.577 8.577 0 0 1-8.576-8.577h2.143a6.434 6.434 0 0 0 6.433 6.434h39.638v2.143zm-39.638 0a8.577 8.577 0 0 1-8.576-8.577 9.28 9.28 0 0 1 9.28-9.28v2.143a7.137 7.137 0 0 0-7.137 7.137 6.434 6.434 0 0 0 6.433 6.434v2.143z" fill="#000"/></g><path d="M128.505 137.143a8.209 8.209 0 0 1 8.209 8.209v43.219H121v-43.923a7.505 7.505 0 0 1 7.505-7.505z" fill="#E1E5F0"/><mask id="e" style="mask-type:luminance" maskUnits="userSpaceOnUse" x="119" y="135" width="20" height="54"><path d="M138.143 135.714h-18.572v52.857h18.572v-52.857z" fill="#fff"/><path d="M128.505 137.143a8.209 8.209 0 0 1 8.209 8.209v43.219H121v-43.923a7.505 7.505 0 0 1 7.505-7.505z" fill="#000"/></mask><g mask="url(#e)"><path d="M128.505 136.072a9.28 9.28 0 0 1 9.281 9.28v43.22h-2.143v-43.22a7.138 7.138 0 0 0-7.138-7.138v-2.142zm-8.576 52.5v-43.924a8.576 8.576 0 0 1 8.576-8.576v2.142a6.434 6.434 0 0 0-6.433 6.434v43.924h-2.143zm0-43.924a8.576 8.576 0 0 1 8.576-8.576 9.28 9.28 0 0 1 9.281 9.28h-2.143a7.138 7.138 0 0 0-7.138-7.138 6.434 6.434 0 0 0-6.433 6.434h-2.143z" fill="#000"/></g></g><path d="M329.091 266.5v-93.091h36.727c7.061 0 13.076 1.349 18.046 4.046 4.969 2.666 8.757 6.378 11.363 11.136 2.637 4.727 3.955 10.182 3.955 16.364 0 6.181-1.334 11.636-4 16.363-2.667 4.727-6.53 8.409-11.591 11.046-5.03 2.636-11.121 3.954-18.273 3.954h-23.409v-15.773h20.227c3.788 0 6.909-.651 9.364-1.954 2.485-1.333 4.333-3.167 5.545-5.5 1.243-2.364 1.864-5.076 1.864-8.136 0-3.091-.621-5.788-1.864-8.091-1.212-2.334-3.06-4.137-5.545-5.409-2.485-1.303-5.636-1.955-9.455-1.955h-13.272v77h-19.682zm117.044 1.364c-7.181 0-13.363-1.455-18.545-4.364-5.152-2.939-9.121-7.091-11.909-12.455-2.788-5.393-4.182-11.772-4.182-19.136 0-7.182 1.394-13.485 4.182-18.909 2.788-5.424 6.712-9.652 11.773-12.682 5.091-3.03 11.06-4.545 17.909-4.545 4.606 0 8.894.742 12.863 2.227 4 1.455 7.485 3.652 10.455 6.591 3 2.939 5.333 6.636 7 11.091 1.667 4.424 2.5 9.606 2.5 15.545v5.318h-58.955v-12h40.728c0-2.787-.606-5.257-1.819-7.409a13.02 13.02 0 0 0-5.045-5.045c-2.121-1.243-4.591-1.864-7.409-1.864-2.939 0-5.546.682-7.818 2.046a14.335 14.335 0 0 0-5.273 5.409c-1.273 2.242-1.924 4.742-1.955 7.5v11.409c0 3.454.637 6.439 1.91 8.954 1.303 2.516 3.136 4.455 5.5 5.819 2.363 1.363 5.166 2.045 8.409 2.045 2.151 0 4.121-.303 5.909-.909 1.788-.606 3.318-1.515 4.591-2.727 1.272-1.212 2.242-2.697 2.909-4.455l17.909 1.182c-.909 4.303-2.773 8.061-5.591 11.273-2.788 3.182-6.394 5.666-10.818 7.454-4.394 1.758-9.47 2.637-15.228 2.637zm67.886-41.728V266.5h-19.364v-69.818h18.455V209h.818c1.545-4.061 4.136-7.273 7.773-9.636 3.636-2.394 8.045-3.591 13.227-3.591 4.848 0 9.076 1.06 12.682 3.182 3.606 2.121 6.409 5.151 8.409 9.09 2 3.91 3 8.576 3 14V266.5h-19.364v-41c.031-4.273-1.06-7.606-3.272-10-2.213-2.424-5.258-3.636-9.137-3.636-2.606 0-4.909.56-6.909 1.681-1.97 1.122-3.515 2.758-4.636 4.91-1.091 2.121-1.652 4.681-1.682 7.681zm83.465 0V266.5h-19.364v-69.818h18.455V209h.818c1.545-4.061 4.136-7.273 7.773-9.636 3.636-2.394 8.045-3.591 13.227-3.591 4.848 0 9.076 1.06 12.682 3.182 3.606 2.121 6.409 5.151 8.409 9.09 2 3.91 3 8.576 3 14V266.5h-19.364v-41c.031-4.273-1.06-7.606-3.272-10-2.213-2.424-5.258-3.636-9.137-3.636-2.606 0-4.909.56-6.909 1.681-1.97 1.122-3.515 2.758-4.636 4.91-1.091 2.121-1.652 4.681-1.682 7.681zm73.556 66.546c-2.455 0-4.758-.197-6.909-.591-2.121-.364-3.879-.833-5.273-1.409l4.364-14.455c2.272.697 4.318 1.076 6.136 1.137 1.848.06 3.439-.364 4.773-1.273 1.363-.909 2.469-2.455 3.318-4.636l1.136-2.955-25.045-71.818h20.363l14.455 51.273h.727l14.591-51.273h20.5l-27.136 77.363c-1.303 3.758-3.076 7.031-5.318 9.819-2.212 2.818-5.016 4.984-8.409 6.5-3.394 1.545-7.485 2.318-12.273 2.318zm124.976-76.091-17.727 1.091a9.165 9.165 0 0 0-1.955-4.091c-1-1.243-2.318-2.227-3.954-2.955-1.606-.757-3.53-1.136-5.773-1.136-3 0-5.53.636-7.591 1.909-2.06 1.243-3.091 2.909-3.091 5 0 1.667.667 3.076 2 4.227 1.334 1.152 3.621 2.076 6.864 2.773l12.636 2.546c6.788 1.393 11.849 3.636 15.182 6.727s5 7.151 5 12.182c0 4.575-1.348 8.591-4.045 12.045-2.667 3.455-6.334 6.152-11 8.091-4.637 1.909-9.985 2.864-16.046 2.864-9.242 0-16.606-1.925-22.091-5.773-5.454-3.879-8.651-9.152-9.591-15.818l19.046-1c.576 2.818 1.97 4.969 4.182 6.454 2.212 1.455 5.045 2.182 8.5 2.182 3.394 0 6.121-.651 8.181-1.954 2.091-1.334 3.152-3.046 3.182-5.137-.03-1.757-.772-3.197-2.227-4.318-1.455-1.152-3.697-2.03-6.727-2.636l-12.091-2.409c-6.818-1.364-11.894-3.728-15.227-7.091-3.303-3.364-4.955-7.652-4.955-12.864 0-4.485 1.212-8.348 3.636-11.591 2.455-3.242 5.894-5.742 10.319-7.5 4.454-1.757 9.666-2.636 15.636-2.636 8.818 0 15.757 1.863 20.818 5.591 5.091 3.727 8.061 8.803 8.909 15.227zm17.624 49.909v-69.818h19.364V266.5h-19.364zm9.728-78.818c-2.879 0-5.349-.955-7.41-2.864-2.03-1.939-3.045-4.257-3.045-6.954 0-2.667 1.015-4.955 3.045-6.864 2.061-1.939 4.531-2.909 7.41-2.909 2.878 0 5.333.97 7.363 2.909 2.061 1.909 3.091 4.197 3.091 6.864 0 2.697-1.03 5.015-3.091 6.954-2.03 1.909-4.485 2.864-7.363 2.864zm48.896 80.136c-4.454 0-8.424-.773-11.909-2.318-3.485-1.576-6.242-3.894-8.272-6.955-2-3.09-3-6.939-3-11.545 0-3.879.712-7.136 2.136-9.773 1.424-2.636 3.364-4.757 5.818-6.363 2.455-1.606 5.243-2.819 8.364-3.637a63.713 63.713 0 0 1 9.909-1.727c4.06-.424 7.333-.818 9.818-1.182 2.485-.394 4.288-.97 5.409-1.727 1.121-.758 1.682-1.879 1.682-3.364v-.272c0-2.879-.909-5.107-2.727-6.682-1.788-1.576-4.334-2.364-7.637-2.364-3.485 0-6.257.773-8.318 2.318-2.061 1.515-3.424 3.425-4.091 5.728l-17.909-1.455c.909-4.242 2.697-7.909 5.364-11 2.666-3.121 6.106-5.515 10.318-7.182 4.242-1.697 9.151-2.545 14.727-2.545 3.879 0 7.591.454 11.137 1.363 3.575.909 6.742 2.319 9.5 4.228a20.547 20.547 0 0 1 6.59 7.363c1.607 2.97 2.41 6.531 2.41 10.682V266.5h-18.364v-9.682h-.546a19.7 19.7 0 0 1-4.5 5.773c-1.878 1.636-4.136 2.924-6.772 3.864-2.637.909-5.682 1.363-9.137 1.363zm5.546-13.363c2.848 0 5.363-.561 7.545-1.682 2.182-1.152 3.894-2.697 5.137-4.637 1.242-1.939 1.863-4.136 1.863-6.591v-7.409c-.606.394-1.439.758-2.5 1.091-1.03.303-2.197.591-3.5.864-1.303.242-2.606.47-3.909.682-1.303.182-2.485.348-3.545.5-2.273.333-4.258.863-5.955 1.591-1.697.727-3.015 1.712-3.954 2.954-.94 1.212-1.409 2.727-1.409 4.546 0 2.636.954 4.651 2.863 6.045 1.94 1.364 4.394 2.046 7.364 2.046z" fill="#fff"/><defs><clipPath id="a"><path fill="#fff" transform="translate(81 120)" d="M0 0h200v200H0z"/></clipPath></defs></svg>