<svg width="1000" height="440" viewBox="0 0 1000 440" fill="none" xmlns="http://www.w3.org/2000/svg">
<rect width="1000" height="440" fill="black"/>
<g clip-path="url(#clip0_14_1260)">
<path d="M281 120H81V320H281V120Z" fill="black"/>
<path d="M121 161.428H190.286C193.047 161.428 195.286 163.667 195.286 166.428V265C195.286 285.513 178.656 302.143 158.143 302.143C137.629 302.143 121 285.513 121 265V161.428Z" fill="#E1E5F0"/>
<path d="M121 235.714V166.428C121 163.667 123.239 161.428 126 161.428H224.571C245.085 161.428 261.714 178.058 261.714 198.571C261.714 219.085 245.085 235.714 224.571 235.714H121Z" fill="#E1E5F0"/>
<path d="M186.704 137.143C191.444 137.143 195.286 140.985 195.286 145.725V235.714H178.857V144.989C178.857 140.656 182.37 137.143 186.704 137.143Z" fill="#E1E5F0"/>
<path d="M195.286 190.714V249.286H179.571V190.714H195.286Z" fill="#E1E5F0"/>
<mask id="mask0_14_1260" style="mask-type:luminance" maskUnits="userSpaceOnUse" x="178" y="190" width="19" height="60">
<path d="M196.714 190.714H178.143V249.286H196.714V190.714Z" fill="white"/>
<path d="M195.286 190.714V249.286H179.571V190.714H195.286Z" fill="black"/>
</mask>
<g mask="url(#mask0_14_1260)">
<path d="M195.286 190.714H194.214V249.286H195.286H196.357V190.714H195.286ZM179.571 249.286H180.643V190.714H179.571H178.5V249.286H179.571Z" fill="black"/>
</g>
<path d="M101 169.637C101 165.104 104.675 161.428 109.209 161.428H195.286V177.143H108.505C104.36 177.143 101 173.782 101 169.637Z" fill="#E1E5F0"/>
<path d="M101 169.637C101 165.104 104.675 161.428 109.209 161.428H216.714V177.143H108.505C104.36 177.143 101 173.782 101 169.637Z" fill="#E1E5F0"/>
<mask id="mask1_14_1260" style="mask-type:luminance" maskUnits="userSpaceOnUse" x="99" y="160" width="118" height="19">
<path d="M216.714 160H99.5713V178.571H216.714V160Z" fill="white"/>
<path d="M101 169.637C101 165.104 104.675 161.428 109.209 161.428H216.714V177.143H108.505C104.36 177.143 101 173.782 101 169.637Z" fill="black"/>
</mask>
<g mask="url(#mask1_14_1260)">
<path d="M99.9287 169.638C99.9287 164.512 104.084 160.357 109.209 160.357H216.714V162.5H109.209C105.267 162.5 102.072 165.696 102.072 169.638H99.9287ZM216.714 178.214H108.505C103.769 178.214 99.9287 174.374 99.9287 169.638H102.072C102.072 173.191 104.952 176.071 108.505 176.071H216.714V178.214ZM108.505 178.214C103.769 178.214 99.9287 174.374 99.9287 169.638C99.9287 164.512 104.084 160.357 109.209 160.357V162.5C105.267 162.5 102.072 165.696 102.072 169.638C102.072 173.191 104.952 176.071 108.505 176.071V178.214Z" fill="black"/>
</g>
<path d="M101 169.637C101 165.104 104.675 161.428 109.209 161.428H121V177.143H108.505C104.36 177.143 101 173.782 101 169.637Z" fill="#E1E5F0"/>
<path d="M136.714 235.714H179.571V264.286C179.571 276.121 169.977 285.714 158.142 285.714C146.308 285.714 136.714 276.121 136.714 264.286V235.714Z" fill="black"/>
<path d="M195.286 220V177.143H223.858C235.693 177.143 245.286 186.737 245.286 198.571C245.286 210.406 235.693 220 223.858 220H195.286Z" fill="black"/>
<path d="M128.505 137.143C133.039 137.143 136.714 140.818 136.714 145.352V235.714H121V144.648C121 140.503 124.36 137.143 128.505 137.143Z" fill="#E1E5F0"/>
<path d="M136.714 220V177.143H179.571V220H136.714Z" fill="black"/>
<path d="M101 228.209C101 223.675 104.675 220 109.209 220H148.143V235.714H108.505C104.36 235.714 101 232.354 101 228.209Z" fill="#E1E5F0"/>
<mask id="mask2_14_1260" style="mask-type:luminance" maskUnits="userSpaceOnUse" x="99" y="218" width="50" height="20">
<path d="M148.143 218.572H99.5713V237.143H148.143V218.572Z" fill="white"/>
<path d="M101 228.209C101 223.675 104.675 220 109.209 220H148.143V235.714H108.505C104.36 235.714 101 232.354 101 228.209Z" fill="black"/>
</mask>
<g mask="url(#mask2_14_1260)">
<path d="M99.9287 228.209C99.9287 223.084 104.084 218.929 109.209 218.929H148.143V221.072H109.209C105.267 221.072 102.072 224.267 102.072 228.209H99.9287ZM148.143 236.786H108.505C103.769 236.786 99.9287 232.946 99.9287 228.209H102.072C102.072 231.762 104.952 234.643 108.505 234.643H148.143V236.786ZM108.505 236.786C103.769 236.786 99.9287 232.946 99.9287 228.209C99.9287 223.084 104.084 218.929 109.209 218.929V221.072C105.267 221.072 102.072 224.267 102.072 228.209C102.072 231.762 104.952 234.643 108.505 234.643V236.786Z" fill="black"/>
</g>
<path d="M128.505 137.143C133.039 137.143 136.714 140.818 136.714 145.352V188.571H121V144.648C121 140.503 124.36 137.143 128.505 137.143Z" fill="#E1E5F0"/>
<mask id="mask3_14_1260" style="mask-type:luminance" maskUnits="userSpaceOnUse" x="119" y="135" width="20" height="54">
<path d="M138.143 135.714H119.571V188.571H138.143V135.714Z" fill="white"/>
<path d="M128.505 137.143C133.039 137.143 136.714 140.818 136.714 145.352V188.571H121V144.648C121 140.503 124.36 137.143 128.505 137.143Z" fill="black"/>
</mask>
<g mask="url(#mask3_14_1260)">
<path d="M128.505 136.072C133.631 136.072 137.786 140.227 137.786 145.352V188.572H135.643V145.352C135.643 141.41 132.447 138.214 128.505 138.214V136.072ZM119.929 188.572V144.648C119.929 139.911 123.769 136.072 128.505 136.072V138.214C124.952 138.214 122.072 141.095 122.072 144.648V188.572H119.929ZM119.929 144.648C119.929 139.911 123.769 136.072 128.505 136.072C133.631 136.072 137.786 140.227 137.786 145.352H135.643C135.643 141.41 132.447 138.214 128.505 138.214C124.952 138.214 122.072 141.095 122.072 144.648H119.929Z" fill="black"/>
</g>
</g>
<path d="M329.091 266.5V173.409H365.818C372.879 173.409 378.894 174.758 383.864 177.455C388.833 180.121 392.621 183.833 395.227 188.591C397.864 193.318 399.182 198.773 399.182 204.955C399.182 211.136 397.848 216.591 395.182 221.318C392.515 226.045 388.652 229.727 383.591 232.364C378.561 235 372.47 236.318 365.318 236.318H341.909V220.545H362.136C365.924 220.545 369.045 219.894 371.5 218.591C373.985 217.258 375.833 215.424 377.045 213.091C378.288 210.727 378.909 208.015 378.909 204.955C378.909 201.864 378.288 199.167 377.045 196.864C375.833 194.53 373.985 192.727 371.5 191.455C369.015 190.152 365.864 189.5 362.045 189.5H348.773V266.5H329.091ZM446.135 267.864C438.954 267.864 432.772 266.409 427.59 263.5C422.438 260.561 418.469 256.409 415.681 251.045C412.893 245.652 411.499 239.273 411.499 231.909C411.499 224.727 412.893 218.424 415.681 213C418.469 207.576 422.393 203.348 427.454 200.318C432.545 197.288 438.514 195.773 445.363 195.773C449.969 195.773 454.257 196.515 458.226 198C462.226 199.455 465.711 201.652 468.681 204.591C471.681 207.53 474.014 211.227 475.681 215.682C477.348 220.106 478.181 225.288 478.181 231.227V236.545H419.226V224.545H459.954C459.954 221.758 459.348 219.288 458.135 217.136C456.923 214.985 455.242 213.303 453.09 212.091C450.969 210.848 448.499 210.227 445.681 210.227C442.742 210.227 440.135 210.909 437.863 212.273C435.62 213.606 433.863 215.409 432.59 217.682C431.317 219.924 430.666 222.424 430.635 225.182V236.591C430.635 240.045 431.272 243.03 432.545 245.545C433.848 248.061 435.681 250 438.045 251.364C440.408 252.727 443.211 253.409 446.454 253.409C448.605 253.409 450.575 253.106 452.363 252.5C454.151 251.894 455.681 250.985 456.954 249.773C458.226 248.561 459.196 247.076 459.863 245.318L477.772 246.5C476.863 250.803 474.999 254.561 472.181 257.773C469.393 260.955 465.787 263.439 461.363 265.227C456.969 266.985 451.893 267.864 446.135 267.864ZM514.021 226.136V266.5H494.657V196.682H513.112V209H513.93C515.475 204.939 518.066 201.727 521.703 199.364C525.339 196.97 529.748 195.773 534.93 195.773C539.778 195.773 544.006 196.833 547.612 198.955C551.218 201.076 554.021 204.106 556.021 208.045C558.021 211.955 559.021 216.621 559.021 222.045V266.5H539.657V225.5C539.688 221.227 538.597 217.894 536.385 215.5C534.172 213.076 531.127 211.864 527.248 211.864C524.642 211.864 522.339 212.424 520.339 213.545C518.369 214.667 516.824 216.303 515.703 218.455C514.612 220.576 514.051 223.136 514.021 226.136ZM597.486 226.136V266.5H578.122V196.682H596.577V209H597.395C598.94 204.939 601.531 201.727 605.168 199.364C608.804 196.97 613.213 195.773 618.395 195.773C623.243 195.773 627.471 196.833 631.077 198.955C634.683 201.076 637.486 204.106 639.486 208.045C641.486 211.955 642.486 216.621 642.486 222.045V266.5H623.122V225.5C623.153 221.227 622.062 217.894 619.85 215.5C617.637 213.076 614.592 211.864 610.713 211.864C608.107 211.864 605.804 212.424 603.804 213.545C601.834 214.667 600.289 216.303 599.168 218.455C598.077 220.576 597.516 223.136 597.486 226.136ZM671.042 292.682C668.587 292.682 666.284 292.485 664.133 292.091C662.012 291.727 660.254 291.258 658.86 290.682L663.224 276.227C665.496 276.924 667.542 277.303 669.36 277.364C671.208 277.424 672.799 277 674.133 276.091C675.496 275.182 676.602 273.636 677.451 271.455L678.587 268.5L653.542 196.682H673.905L688.36 247.955H689.087L703.678 196.682H724.178L697.042 274.045C695.739 277.803 693.966 281.076 691.724 283.864C689.512 286.682 686.708 288.848 683.315 290.364C679.921 291.909 675.83 292.682 671.042 292.682ZM796.018 216.591L778.291 217.682C777.988 216.167 777.336 214.803 776.336 213.591C775.336 212.348 774.018 211.364 772.382 210.636C770.776 209.879 768.852 209.5 766.609 209.5C763.609 209.5 761.079 210.136 759.018 211.409C756.958 212.652 755.927 214.318 755.927 216.409C755.927 218.076 756.594 219.485 757.927 220.636C759.261 221.788 761.548 222.712 764.791 223.409L777.427 225.955C784.215 227.348 789.276 229.591 792.609 232.682C795.942 235.773 797.609 239.833 797.609 244.864C797.609 249.439 796.261 253.455 793.564 256.909C790.897 260.364 787.23 263.061 782.564 265C777.927 266.909 772.579 267.864 766.518 267.864C757.276 267.864 749.912 265.939 744.427 262.091C738.973 258.212 735.776 252.939 734.836 246.273L753.882 245.273C754.458 248.091 755.852 250.242 758.064 251.727C760.276 253.182 763.109 253.909 766.564 253.909C769.958 253.909 772.685 253.258 774.745 251.955C776.836 250.621 777.897 248.909 777.927 246.818C777.897 245.061 777.155 243.621 775.7 242.5C774.245 241.348 772.003 240.47 768.973 239.864L756.882 237.455C750.064 236.091 744.988 233.727 741.655 230.364C738.352 227 736.7 222.712 736.7 217.5C736.7 213.015 737.912 209.152 740.336 205.909C742.791 202.667 746.23 200.167 750.655 198.409C755.109 196.652 760.321 195.773 766.291 195.773C775.109 195.773 782.048 197.636 787.109 201.364C792.2 205.091 795.17 210.167 796.018 216.591ZM813.642 266.5V196.682H833.006V266.5H813.642ZM823.37 187.682C820.491 187.682 818.021 186.727 815.96 184.818C813.93 182.879 812.915 180.561 812.915 177.864C812.915 175.197 813.93 172.909 815.96 171C818.021 169.061 820.491 168.091 823.37 168.091C826.248 168.091 828.703 169.061 830.733 171C832.794 172.909 833.824 175.197 833.824 177.864C833.824 180.561 832.794 182.879 830.733 184.818C828.703 186.727 826.248 187.682 823.37 187.682ZM872.266 267.818C867.812 267.818 863.842 267.045 860.357 265.5C856.872 263.924 854.115 261.606 852.085 258.545C850.085 255.455 849.085 251.606 849.085 247C849.085 243.121 849.797 239.864 851.221 237.227C852.645 234.591 854.585 232.47 857.039 230.864C859.494 229.258 862.282 228.045 865.403 227.227C868.554 226.409 871.857 225.833 875.312 225.5C879.372 225.076 882.645 224.682 885.13 224.318C887.615 223.924 889.418 223.348 890.539 222.591C891.66 221.833 892.221 220.712 892.221 219.227V218.955C892.221 216.076 891.312 213.848 889.494 212.273C887.706 210.697 885.16 209.909 881.857 209.909C878.372 209.909 875.6 210.682 873.539 212.227C871.478 213.742 870.115 215.652 869.448 217.955L851.539 216.5C852.448 212.258 854.236 208.591 856.903 205.5C859.569 202.379 863.009 199.985 867.221 198.318C871.463 196.621 876.372 195.773 881.948 195.773C885.827 195.773 889.539 196.227 893.085 197.136C896.66 198.045 899.827 199.455 902.585 201.364C905.372 203.273 907.569 205.727 909.175 208.727C910.782 211.697 911.585 215.258 911.585 219.409V266.5H893.221V256.818H892.675C891.554 259 890.054 260.924 888.175 262.591C886.297 264.227 884.039 265.515 881.403 266.455C878.766 267.364 875.721 267.818 872.266 267.818ZM877.812 254.455C880.66 254.455 883.175 253.894 885.357 252.773C887.539 251.621 889.251 250.076 890.494 248.136C891.736 246.197 892.357 244 892.357 241.545V234.136C891.751 234.53 890.918 234.894 889.857 235.227C888.827 235.53 887.66 235.818 886.357 236.091C885.054 236.333 883.751 236.561 882.448 236.773C881.145 236.955 879.963 237.121 878.903 237.273C876.63 237.606 874.645 238.136 872.948 238.864C871.251 239.591 869.933 240.576 868.994 241.818C868.054 243.03 867.585 244.545 867.585 246.364C867.585 249 868.539 251.015 870.448 252.409C872.388 253.773 874.842 254.455 877.812 254.455Z" fill="white"/>
<defs>
<clipPath id="clip0_14_1260">
<rect width="200" height="200" fill="white" transform="translate(81 120)"/>
</clipPath>
</defs>
</svg>
