<svg width="419" height="337" viewBox="0 0 419 337" fill="none" xmlns="http://www.w3.org/2000/svg">
<g filter="url(#filter0_f_86_163)">
<path d="M179.943 155.202C184.808 128.581 232.205 114.941 256.382 119.359C280.558 123.777 342.693 157.433 337.828 184.054C332.964 210.675 298.574 244.418 274.398 240C250.222 235.582 175.078 181.823 179.943 155.202Z" fill="#AC93F3" fill-opacity="0.3"/>
</g>
<g filter="url(#filter1_f_86_163)">
<path d="M184.835 252.316C161.162 265.429 116.875 244.12 82.8347 222.816C70.9256 201.317 115.662 163.714 139.335 150.6C163.007 137.487 152.767 129.102 164.676 150.6C176.585 172.099 208.507 239.202 184.835 252.316Z" fill="#A1EBEA" fill-opacity="0.5"/>
</g>
<g filter="url(#filter2_f_86_163)">
<path d="M125.004 151.365C113.445 140.636 119.466 109.81 127.064 84.9606C138.192 72.9719 167.767 90.2391 179.326 100.968C190.884 111.697 194.362 103.758 183.234 115.746C172.106 127.735 136.562 162.094 125.004 151.365Z" fill="#BED669" fill-opacity="0.5"/>
</g>
<mask id="mask0_86_163" style="mask-type:luminance" maskUnits="userSpaceOnUse" x="247" y="122" width="68" height="58">
<path d="M247 122H314.293V179.411H247V122Z" fill="white"/>
</mask>
<g mask="url(#mask0_86_163)">
<g filter="url(#filter3_d_86_163)">
<path d="M283.747 168.853C294.786 168.853 303.735 159.893 303.735 148.84C303.735 137.787 294.786 128.826 283.747 128.826C272.708 128.826 263.76 137.787 263.76 148.84C263.76 159.893 272.708 168.853 283.747 168.853Z" fill="#BAC3FE" fill-opacity="0.5"/>
<path d="M283.74 169.417C280.869 169.417 278.008 168.807 275.311 167.591C270.309 165.335 266.484 161.263 264.539 156.126C262.596 150.989 262.767 145.401 265.021 140.394C267.274 135.384 271.34 131.554 276.472 129.607C281.602 127.662 287.183 127.833 292.184 130.089C297.186 132.346 301.012 136.418 302.955 141.555C304.899 146.691 304.727 152.279 302.474 157.287C300.22 162.295 296.153 166.126 291.023 168.072C288.657 168.97 286.196 169.417 283.74 169.417ZM283.776 129.38C276.361 129.38 269.265 133.648 266.028 140.846C261.626 150.63 265.994 162.175 275.764 166.582C280.498 168.718 285.776 168.881 290.633 167.038C295.487 165.197 299.336 161.572 301.468 156.834C303.601 152.094 303.763 146.808 301.923 141.946C300.084 137.086 296.465 133.231 291.732 131.097C289.149 129.932 286.441 129.38 283.776 129.38Z" fill="#BAC3FE" fill-opacity="0.5"/>
<path d="M283.747 162.41C291.233 162.41 297.301 156.334 297.301 148.84C297.301 141.345 291.233 135.269 283.747 135.269C276.262 135.269 270.194 141.345 270.194 148.84C270.194 156.334 276.262 162.41 283.747 162.41Z" fill="#BAC3FE" fill-opacity="0.5"/>
<path d="M283.726 162.963C281.793 162.963 279.829 162.563 277.953 161.717C274.518 160.168 271.891 157.371 270.556 153.844C269.221 150.316 269.338 146.478 270.886 143.04C274.082 135.937 282.453 132.765 289.541 135.963C296.633 139.162 299.803 147.542 296.608 154.642C294.258 159.866 289.108 162.963 283.726 162.963ZM283.767 135.822C278.807 135.822 274.06 138.678 271.893 143.493C270.467 146.664 270.359 150.2 271.59 153.453C272.82 156.703 275.241 159.28 278.407 160.709C284.944 163.658 292.657 160.732 295.601 154.188C297.028 151.017 297.136 147.481 295.905 144.228C294.675 140.978 292.253 138.4 289.087 136.972C287.36 136.192 285.549 135.822 283.767 135.822Z" fill="#BAC3FE" fill-opacity="0.5"/>
</g>
</g>
<mask id="mask1_86_163" style="mask-type:luminance" maskUnits="userSpaceOnUse" x="100" y="187" width="76" height="74">
<path d="M100 187H175.256V260.545H100V187Z" fill="white"/>
</mask>
<g mask="url(#mask1_86_163)">
<g filter="url(#filter4_d_86_163)">
<path d="M162.697 221.58C162.697 206.997 150.89 195.175 136.326 195.175C121.761 195.175 109.955 206.997 109.955 221.58C109.955 236.163 121.761 247.985 136.326 247.985C150.89 247.985 162.697 236.163 162.697 221.58Z" fill="#F6F6F7"/>
<path d="M136.327 200.97H136.326C124.958 200.97 115.742 210.198 115.742 221.58V221.581C115.742 232.964 124.958 242.191 136.326 242.191H136.327C147.695 242.191 156.91 232.964 156.91 221.581V221.58C156.91 210.198 147.695 200.97 136.327 200.97Z" fill="url(#paint0_linear_86_163)"/>
<path d="M144.38 222.978C143.709 222.071 142.797 221.456 141.641 221.132C142.62 220.711 143.394 220.115 143.962 219.345C144.53 218.575 144.813 217.691 144.813 216.691C144.813 214.809 144.228 213.387 143.058 212.426C142.163 211.692 140.928 211.239 139.359 211.067V208.752H137.374V210.985H135.637V208.752H133.652V210.985H128.42V213.284H130.832V230.086H128.42V232.385H130.832V232.395H133.652V234.408H135.637V232.395H137.374V234.408H139.359V232.341C141.098 232.185 142.49 231.658 143.521 230.748C144.766 229.649 145.386 228.14 145.386 226.219C145.386 224.964 145.051 223.883 144.38 222.976V222.978ZM133.652 213.295H137.823C139.224 213.295 140.266 213.563 140.952 214.098C141.637 214.633 141.979 215.49 141.979 216.67C141.979 217.731 141.609 218.571 140.871 219.19C140.132 219.808 139.146 220.118 137.913 220.118H133.653L133.652 213.295ZM141.414 229.065C140.654 229.747 139.62 230.087 138.307 230.087H133.651V222.382H138.351C141.151 222.382 142.552 223.672 142.552 226.249C142.552 227.445 142.173 228.384 141.414 229.065Z" fill="#F6F6F7"/>
</g>
</g>
<mask id="mask2_86_163" style="mask-type:luminance" maskUnits="userSpaceOnUse" x="87" y="106" width="41" height="41">
<path d="M87 106.401H127.349V146.802H87V106.401Z" fill="white"/>
</mask>
<g mask="url(#mask2_86_163)">
<path d="M107.174 146.8C106.945 146.8 106.741 146.658 106.661 146.443L101.445 132.335L87.3577 127.115C87.1433 127.037 87 126.831 87 126.602C87 126.373 87.1422 126.168 87.3577 126.088L101.446 120.866L106.662 106.759C106.741 106.544 106.946 106.402 107.175 106.402C107.404 106.402 107.608 106.544 107.688 106.759L112.902 120.867L126.992 126.089C127.207 126.168 127.35 126.374 127.35 126.603C127.35 126.832 127.208 127.037 126.992 127.117L112.902 132.337L107.688 146.446C107.609 146.66 107.405 146.803 107.175 146.803L107.174 146.8ZM89.1222 126.602L102.061 131.395C102.211 131.451 102.329 131.568 102.384 131.718L107.173 144.676L111.96 131.718C112.015 131.568 112.133 131.451 112.283 131.395L125.224 126.602L112.283 121.805C112.133 121.749 112.015 121.632 111.96 121.482L107.174 108.527L102.385 121.482C102.33 121.632 102.212 121.749 102.062 121.805L89.1222 126.602Z" fill="#BAC3FE" fill-opacity="0.6"/>
</g>
<mask id="mask3_86_163" style="mask-type:luminance" maskUnits="userSpaceOnUse" x="212" y="66" width="31" height="30">
<path d="M212.489 66H242.103V95.652H212.489V66Z" fill="white"/>
</mask>
<g mask="url(#mask3_86_163)">
<path d="M227.296 66L231.294 76.8208L242.102 80.8254L231.294 84.829L227.296 95.6509L223.296 84.829L212.489 80.8254L223.296 76.8208L227.296 66Z" fill="url(#paint1_linear_86_163)" fill-opacity="0.6"/>
</g>
<mask id="mask4_86_163" style="mask-type:luminance" maskUnits="userSpaceOnUse" x="96" y="77" width="212" height="202">
<path d="M169.973 77L307.475 176.377L233.884 278.476L96.3821 179.098L169.973 77Z" fill="white"/>
</mask>
<g mask="url(#mask4_86_163)">
<g filter="url(#filter5_d_86_163)">
<path d="M193.918 108.497L272.161 165.047C280.155 170.824 281.963 182.01 276.196 190.012L239.579 240.813C233.811 248.815 222.639 250.62 214.645 244.842L136.402 188.293C129.907 183.599 128.438 174.51 133.124 168.009L173.66 111.771C178.346 105.27 187.423 103.803 193.918 108.497Z" fill="#F6F6F7"/>
<path d="M180.205 108.909L266.903 171.57C271.632 174.987 272.703 181.605 269.29 186.339L233.922 235.408C230.511 240.141 223.901 241.21 219.171 237.792L132.825 175.386C131.004 174.07 130.593 171.524 131.906 169.701L175.134 109.729C176.307 108.101 178.579 107.734 180.205 108.909Z" fill="url(#paint2_linear_86_163)"/>
<path d="M264.716 203.28L235.08 181.861C232.581 180.055 229.092 180.618 227.289 183.12L217.644 196.502C215.84 199.004 216.405 202.497 218.904 204.303L248.54 225.722C251.04 227.529 254.528 226.965 256.332 224.463L265.977 211.082C267.781 208.58 267.216 205.087 264.716 203.28Z" fill="#F6F6F7"/>
<path d="M230.861 205.766C234.448 208.359 239.454 207.55 242.042 203.959C244.63 200.368 243.82 195.356 240.233 192.763C236.646 190.171 231.64 190.98 229.052 194.57C226.463 198.161 227.273 203.173 230.861 205.766Z" fill="#18182B"/>
</g>
</g>
<mask id="mask5_86_163" style="mask-type:luminance" maskUnits="userSpaceOnUse" x="267" y="164" width="88" height="103">
<path d="M267 164H354.683V266.764H267V164Z" fill="white"/>
</mask>
<g mask="url(#mask5_86_163)">
<path d="M300.441 198.579V209.74H297.579V198.58L297.58 198.579H300.441ZM319.044 198.579C322.995 198.579 326.199 201.782 326.199 205.734C326.199 209.685 322.995 212.889 319.044 212.889H312.175V210.027H319.043C321.414 210.027 323.336 208.105 323.336 205.734C323.336 203.364 321.414 201.442 319.043 201.442H309.027V201.728H311.889V220.044C311.889 223.996 308.685 227.199 304.733 227.199C300.782 227.199 297.579 223.995 297.579 220.044V213.174H300.441V220.044C300.441 222.415 302.363 224.337 304.733 224.337C307.104 224.337 309.026 222.415 309.026 220.044V212.89H300.441V212.888H297.579V210.026H300.441V210.027H308.74V212.889H309.026V201.442H300.728V198.579H319.044Z" fill="#18182B"/>
<path d="M297.579 196.145C297.579 195.355 298.22 194.714 299.01 194.714V194.714C299.8 194.714 300.441 195.355 300.441 196.145V209.739H297.579V196.145Z" fill="#18182B"/>
<path d="M294.431 201.439C293.641 201.439 293 200.799 293 200.008V200.008C293 199.218 293.641 198.577 294.431 198.577H297.293V201.439H294.431Z" fill="#18182B"/>
<path d="M309.027 195.431C309.027 194.641 309.668 194 310.458 194V194C311.248 194 311.889 194.641 311.889 195.431V198.293H309.027V195.431Z" fill="#18182B"/>
<path d="M294.717 212.888C293.927 212.888 293.286 212.248 293.286 211.457V211.457C293.286 210.667 293.927 210.026 294.717 210.026H308.741V212.888H294.717Z" fill="#18182B"/>
<path d="M297.579 195.717C297.579 194.927 298.22 194.286 299.01 194.286V194.286C299.8 194.286 300.441 194.927 300.441 195.717V209.74H297.579V195.717Z" fill="#18182B"/>
<path d="M309.027 201.725H311.889V217.179H309.027V201.725Z" fill="#18182B"/>
<path d="M316.182 198.579V201.441H300.728V198.579H316.182Z" fill="#18182B"/>
</g>
<defs>
<filter id="filter0_f_86_163" x="99.7173" y="38.5386" width="318.381" height="281.854" filterUnits="userSpaceOnUse" color-interpolation-filters="sRGB">
<feFlood flood-opacity="0" result="BackgroundImageFix"/>
<feBlend mode="normal" in="SourceGraphic" in2="BackgroundImageFix" result="shape"/>
<feGaussianBlur stdDeviation="40" result="effect1_foregroundBlur_86_163"/>
</filter>
<filter id="filter1_f_86_163" x="0.855164" y="57.4354" width="272.499" height="278.907" filterUnits="userSpaceOnUse" color-interpolation-filters="sRGB">
<feFlood flood-opacity="0" result="BackgroundImageFix"/>
<feBlend mode="normal" in="SourceGraphic" in2="BackgroundImageFix" result="shape"/>
<feGaussianBlur stdDeviation="40" result="effect1_foregroundBlur_86_163"/>
</filter>
<filter id="filter2_f_86_163" x="38.5472" y="0.889282" width="231.462" height="232.523" filterUnits="userSpaceOnUse" color-interpolation-filters="sRGB">
<feFlood flood-opacity="0" result="BackgroundImageFix"/>
<feBlend mode="normal" in="SourceGraphic" in2="BackgroundImageFix" result="shape"/>
<feGaussianBlur stdDeviation="40" result="effect1_foregroundBlur_86_163"/>
</filter>
<filter id="filter3_d_86_163" x="259.497" y="128.263" width="48.5011" height="48.8538" filterUnits="userSpaceOnUse" color-interpolation-filters="sRGB">
<feFlood flood-opacity="0" result="BackgroundImageFix"/>
<feColorMatrix in="SourceAlpha" type="matrix" values="0 0 0 0 0 0 0 0 0 0 0 0 0 0 0 0 0 0 127 0" result="hardAlpha"/>
<feOffset dy="4"/>
<feGaussianBlur stdDeviation="1.85"/>
<feComposite in2="hardAlpha" operator="out"/>
<feColorMatrix type="matrix" values="0 0 0 0 0.419608 0 0 0 0 0.419608 0 0 0 0 0.419608 0 0 0 0.2 0"/>
<feBlend mode="normal" in2="BackgroundImageFix" result="effect1_dropShadow_86_163"/>
<feBlend mode="normal" in="SourceGraphic" in2="effect1_dropShadow_86_163" result="shape"/>
</filter>
<filter id="filter4_d_86_163" x="105.755" y="192.975" width="65.1422" height="65.2099" filterUnits="userSpaceOnUse" color-interpolation-filters="sRGB">
<feFlood flood-opacity="0" result="BackgroundImageFix"/>
<feColorMatrix in="SourceAlpha" type="matrix" values="0 0 0 0 0 0 0 0 0 0 0 0 0 0 0 0 0 0 127 0" result="hardAlpha"/>
<feOffset dx="2" dy="4"/>
<feGaussianBlur stdDeviation="3.1"/>
<feComposite in2="hardAlpha" operator="out"/>
<feColorMatrix type="matrix" values="0 0 0 0 0.419715 0 0 0 0 0.419715 0 0 0 0 0.419715 0 0 0 0.25 0"/>
<feBlend mode="normal" in2="BackgroundImageFix" result="effect1_dropShadow_86_163"/>
<feBlend mode="normal" in="SourceGraphic" in2="effect1_dropShadow_86_163" result="shape"/>
</filter>
<filter id="filter5_d_86_163" x="126.183" y="103.549" width="161.587" height="154.876" filterUnits="userSpaceOnUse" color-interpolation-filters="sRGB">
<feFlood flood-opacity="0" result="BackgroundImageFix"/>
<feColorMatrix in="SourceAlpha" type="matrix" values="0 0 0 0 0 0 0 0 0 0 0 0 0 0 0 0 0 0 127 0" result="hardAlpha"/>
<feOffset dx="2" dy="4"/>
<feGaussianBlur stdDeviation="3.1"/>
<feComposite in2="hardAlpha" operator="out"/>
<feColorMatrix type="matrix" values="0 0 0 0 0.419715 0 0 0 0 0.419715 0 0 0 0 0.419715 0 0 0 0.25 0"/>
<feBlend mode="normal" in2="BackgroundImageFix" result="effect1_dropShadow_86_163"/>
<feBlend mode="normal" in="SourceGraphic" in2="effect1_dropShadow_86_163" result="shape"/>
</filter>
<linearGradient id="paint0_linear_86_163" x1="136.326" y1="200.97" x2="136.288" y2="262.562" gradientUnits="userSpaceOnUse">
<stop stop-color="#C7D2FF"/>
<stop offset="1" stop-color="#9292FE"/>
</linearGradient>
<linearGradient id="paint1_linear_86_163" x1="227.296" y1="66" x2="227.296" y2="95.6509" gradientUnits="userSpaceOnUse">
<stop stop-color="#BAC3FE"/>
<stop offset="1" stop-color="#5D6ABC"/>
</linearGradient>
<linearGradient id="paint2_linear_86_163" x1="153.393" y1="139.891" x2="251.696" y2="210.747" gradientUnits="userSpaceOnUse">
<stop offset="0.424924" stop-color="#9292FE"/>
<stop offset="1" stop-color="#5A77F6"/>
</linearGradient>
</defs>
</svg>
