<svg xmlns="http://www.w3.org/2000/svg" width="3380" height="2500" fill="none" xmlns:v="https://vecta.io/nano"><style><![CDATA[.B{color-interpolation-filters:sRGB}.C{flood-opacity:0}]]></style><path fill="url(#F)" d="M120 2040h2060v400H120z"/><g filter="url(#A)"><rect x="2014" y="2101.33" width="329.333" height="285.333" rx="142.667" fill="#fff"/><path d="M2170 2040c-110.46 0-200 89.54-200 200s89.54 200 200 200 200-89.54 200-200-89.54-200-200-200zm-62.2 83.57c3.9-.65 7.91.01 11.39 1.88l55.82 32.45a15.45 15.45 0 0 1 6.18 5.87c1.47 2.5 2.21 5.35 2.14 8.25v21.86l-26.03 15.52v-22.56a16.91 16.91 0 0 0-2.4-8.16c-1.48-2.47-3.57-4.52-6.07-5.96l-30.33-16.94a17.97 17.97 0 0 0-8.47-2.12 17.96 17.96 0 0 0-8.46 2.12l-30.34 16.93c-2.59 1.33-4.76 3.35-6.26 5.85a15.57 15.57 0 0 0-2.21 8.28v35.23a17.02 17.02 0 0 0 2.4 8.16 16.94 16.94 0 0 0 6.07 5.97l30.34 17.65a17.96 17.96 0 0 0 8.46 2.12c2.96 0 5.86-.73 8.47-2.12l38.17-22.58 26.66-14.82 38.17-22.57c2.61-1.39 5.51-2.12 8.47-2.12a17.96 17.96 0 0 1 8.46 2.12l56.44 32.43a15.51 15.51 0 0 1 8.47 14.11v65.62c-.09 2.87-.91 5.67-2.38 8.14-1.47 2.46-3.54 4.52-6.02 5.96l-56.43 32.45a17.93 17.93 0 0 1-8.48 2.13 17.92 17.92 0 0 1-8.47-2.13l-56.43-32.43a15.67 15.67 0 0 1-6.26-5.85 15.56 15.56 0 0 1-2.2-8.28v-22.56l25.33-14.81v22.66c.1 2.88.92 5.68 2.41 8.15 1.48 2.47 3.56 4.52 6.06 5.96l30.34 16.93a17.96 17.96 0 0 0 8.46 2.12c2.96 0 5.86-.73 8.47-2.12l30.33-17.63a15.49 15.49 0 0 0 6.25-5.84 15.5 15.5 0 0 0 2.21-8.26v-34.58c-.09-2.88-.92-5.68-2.4-8.16-1.48-2.47-3.56-4.52-6.06-5.96l-30.33-16.93c-2.61-1.39-5.52-2.11-8.47-2.11s-5.86.72-8.46 2.11l-38.04 21.8-26.1 15.52-38.17 21.87c-2.61 1.39-5.51 2.12-8.47 2.12a17.96 17.96 0 0 1-8.46-2.12l-56.44-32.52a15.54 15.54 0 0 1-6.24-5.82 15.48 15.48 0 0 1-2.23-8.23v-65.6c-.14-3.02.66-6.01 2.31-8.54a14.37 14.37 0 0 1 6.86-5.59l56.43-32.44c1.73-.93 3.6-1.56 5.54-1.88z" fill="url(#G)"/></g><path fill="url(#H)" d="M390 1010h2250v400H390z"/><g filter="url(#B)"><rect x="2488.96" y="1075.28" width="309.375" height="278.437" rx="139.219" fill="#fff"/><path d="M2622.72 1212.33l-11.92 48.31c14.71 3.69 60.08 18.42 66.78-8.83 7.01-28.42-40.15-35.77-54.86-39.48zm16.25-65.92l-10.8 43.81c12.25 3.09 50.01 15.68 56.12-9.11 6.38-25.85-33.07-31.61-45.32-34.7zM2640 1010c-39.56 0-78.22 11.73-111.11 33.71a200.01 200.01 0 0 0-73.67 89.75 200.14 200.14 0 0 0-11.38 115.56c7.72 38.79 26.77 74.43 54.74 102.4s63.61 47.02 102.4 54.74a200.14 200.14 0 0 0 115.56-11.38 200.01 200.01 0 0 0 89.75-73.67c21.98-32.89 33.71-71.55 33.71-111.11 0-26.26-5.17-52.27-15.22-76.54-10.06-24.26-24.79-46.31-43.36-64.88s-40.62-33.3-64.88-43.36c-24.27-10.05-50.28-15.22-76.54-15.22zm87.16 171.51a34.82 34.82 0 0 1-8.38 20.82 34.91 34.91 0 0 1-19.32 11.4c4.94 2.01 9.41 5.03 13.14 8.85 3.72 3.83 6.61 8.39 8.48 13.39a38.7 38.7 0 0 1 2.4 15.66 38.59 38.59 0 0 1-4.09 15.32c-11.71 33.84-39.53 36.7-76.53 29.61l-8.98 36.4-21.7-5.47 8.87-35.91-17.29-4.53-8.9 36.07-21.67-5.47 8.98-36.46-15.47-4.04-28.23-7.12 10.77-25.12s15.98 4.3 15.77 3.99c.99.31 2.04.43 3.08.34s2.05-.39 2.98-.87a8 8 0 0 0 2.41-1.96 7.7 7.7 0 0 0 1.47-2.73l24.35-98.75a11.66 11.66 0 0 0-2.46-8.44c-1.89-2.39-4.63-3.94-7.65-4.33.34-.23-15.76-3.96-15.76-3.96l5.77-23.44 29.92 7.56-.02.11 13.86 3.3 8.89-36.04 21.68 5.47-8.71 35.33 17.38 4.14 8.66-35.1 21.69 5.47-8.88 36.05c27.39 9.54 47.43 23.85 43.49 50.46z" fill="url(#I)"/></g><path fill="url(#J)" d="M300 460h1160v400H300z"/><g filter="url(#C)"><g clip-path="url(#Q)"><path d="M1460 860c-110.31 0-200-89.688-200-200s89.69-200 200-200 200 89.688 200 200-89.69 200-200 200z" fill="url(#K)"/><path d="M1463.75 732.5v70.938L1551.56 680l-87.81 52.5zm84.69-75.312l-84.69-140.626V618.75l84.69 38.438zm-84.69-30.626v87.501L1547.81 665l-84.06-38.438zm-91.88 30.626l84.38-140.626V618.75l-84.38 38.438zm84.38-30.626v87.501L1372.19 665l84.06-38.438zm0 105.938v70.938L1368.44 680l87.81 52.5z" fill="#fff"/></g></g><path fill="url(#L)" d="M388.74 60.186H3260v400.179H388.74z"/><g filter="url(#D)"><use href="#R" fill="url(#M)"/><use href="#R" fill="url(#M)"/><path d="M1942.37 205.291a40.98 40.98 0 0 0-14.99-19.852c-6.94-4.901-15.23-7.523-23.72-7.502h-31.75a36.61 36.61 0 0 0-24.5 9.35c-6.73 6.035-11 14.347-11.97 23.335s1.42 18.019 6.71 25.351 13.11 12.449 21.94 14.364l48.34 10.584c9.88 2.169 18.62 7.911 24.52 16.124 5.91 8.214 8.58 18.32 7.49 28.379s-5.85 19.362-13.38 26.124c-7.52 6.761-17.28 10.505-27.4 10.512h-27.32c-8.5.018-16.79-2.608-23.73-7.515a40.95 40.95 0 0 1-14.98-19.87M1890 177.937v-41.016zm0 205.138V342.06z" fill="url(#N)"/><path d="M1942.37 205.291a40.98 40.98 0 0 0-14.99-19.852c-6.94-4.901-15.23-7.523-23.72-7.502h-31.75a36.61 36.61 0 0 0-24.5 9.35c-6.73 6.035-11 14.347-11.97 23.335s1.42 18.019 6.71 25.351 13.11 12.449 21.94 14.364l48.34 10.584c9.88 2.169 18.62 7.911 24.52 16.124 5.91 8.214 8.58 18.32 7.49 28.379s-5.85 19.362-13.38 26.124c-7.52 6.761-17.28 10.505-27.4 10.512h-27.32c-8.5.018-16.79-2.608-23.73-7.515a40.95 40.95 0 0 1-14.98-19.87M1890 177.937v-41.016m0 246.154V342.06" stroke="#fff" stroke-width="20" stroke-linecap="round" stroke-linejoin="round"/></g><path fill="url(#O)" d="M580 1510h1980v400H580z"/><g filter="url(#E)"><rect x="444.668" y="1587.33" width="312" height="245.333" rx="122.667" fill="#fff"/><path fill-rule="evenodd" d="M590 1910c-110.463 0-200-89.54-200-200s89.537-200 200-200 200 89.54 200 200-89.538 200-200 200zm24.025-227.59v-29.57H681.7v-45.1H497.437v45.1h67.675v29.56c-55 2.52-96.362 13.42-96.362 26.47s41.362 23.94 96.362 26.48v94.77h48.913v-94.8c54.912-2.52 96.175-13.41 96.175-26.45 0-13.03-41.263-23.92-96.175-26.46zm0 44.88v-.03c-1.375.1-8.463.53-24.275.53-12.625 0-21.513-.38-24.638-.53v.04c-48.6-2.14-84.875-10.6-84.875-20.73 0-10.12 36.275-18.57 84.875-20.75v33.05c3.175.23 12.275.77 24.85.77 15.088 0 22.65-.63 24.063-.75v-33.04c48.5 2.16 84.687 10.62 84.687 20.72 0 10.13-36.187 18.57-84.687 20.72z" fill="url(#P)"/></g><defs><filter id="A" x="1920" y="2020" width="480" height="480" filterUnits="userSpaceOnUse" class="B"><feFlood result="A" class="C"/><feColorMatrix in="SourceAlpha" values="0 0 0 0 0 0 0 0 0 0 0 0 0 0 0 0 0 0 127 0" result="B"/><feOffset dx="-10" dy="20"/><feGaussianBlur stdDeviation="20"/><feComposite in2="B" operator="out"/><feColorMatrix values="0 0 0 0 0.203911 0 0 0 0 0.0142718 0 0 0 0 0.207125 0 0 0 0.15 0"/><feBlend in2="A"/><feBlend in="SourceGraphic"/></filter><filter id="B" x="2390" y="990" width="480" height="480" filterUnits="userSpaceOnUse" class="B"><feFlood result="A" class="C"/><feColorMatrix in="SourceAlpha" values="0 0 0 0 0 0 0 0 0 0 0 0 0 0 0 0 0 0 127 0" result="B"/><feOffset dx="-10" dy="20"/><feGaussianBlur stdDeviation="20"/><feComposite in2="B" operator="out"/><feColorMatrix values="0 0 0 0 0.275259 0 0 0 0 0.175745 0 0 0 0 0.00385636 0 0 0 0.15 0"/><feBlend in2="A"/><feBlend in="SourceGraphic"/></filter><filter id="C" x="1213" y="443" width="474" height="474" filterUnits="userSpaceOnUse" class="B"><feFlood result="A" class="C"/><feColorMatrix in="SourceAlpha" values="0 0 0 0 0 0 0 0 0 0 0 0 0 0 0 0 0 0 127 0" result="B"/><feOffset dx="-10" dy="20"/><feGaussianBlur stdDeviation="18.5"/><feComposite in2="B" operator="out"/><feColorMatrix values="0 0 0 0 0.147192 0 0 0 0 0 0 0 0 0 0.252329 0 0 0 0.15 0"/><feBlend in2="A"/><feBlend in="SourceGraphic"/></filter><filter id="D" x="1660" y="40" width="480" height="480" filterUnits="userSpaceOnUse" class="B"><feFlood result="A" class="C"/><feColorMatrix in="SourceAlpha" values="0 0 0 0 0 0 0 0 0 0 0 0 0 0 0 0 0 0 127 0" result="B"/><feOffset dx="10" dy="20"/><feGaussianBlur stdDeviation="20"/><feComposite in2="B" operator="out"/><feColorMatrix values="0 0 0 0 0.0292365 0 0 0 0 0.0156636 0 0 0 0 0.219257 0 0 0 0.15 0"/><feBlend in2="A"/><feBlend in="SourceGraphic"/></filter><filter id="E" x="360" y="1490" width="480" height="480" filterUnits="userSpaceOnUse" class="B"><feFlood result="A" class="C"/><feColorMatrix in="SourceAlpha" values="0 0 0 0 0 0 0 0 0 0 0 0 0 0 0 0 0 0 127 0" result="B"/><feOffset dx="10" dy="20"/><feGaussianBlur stdDeviation="20"/><feComposite in2="B" operator="out"/><feColorMatrix values="0 0 0 0 0.0122551 0 0 0 0 0.324012 0 0 0 0 0.116174 0 0 0 0.15 0"/><feBlend in2="A"/><feBlend in="SourceGraphic"/></filter><linearGradient id="F" x1="2180" y1="2240" x2="120" y2="2240.11" href="#S"><stop stop-color="#fff"/><stop offset="0" stop-color="#efdcff"/><stop offset=".707" stop-color="#fff" stop-opacity="0"/></linearGradient><linearGradient id="G" x1="2170" y1="1880" x2="2170" y2="2480.67" href="#S"><stop stop-color="#d67dee"/><stop offset=".704" stop-color="#7f2c96"/></linearGradient><linearGradient id="H" x1="2640" y1="1210" x2="390" y2="1209.43" href="#S"><stop offset=".002" stop-color="#fff"/><stop offset=".025" stop-color="#fff8df"/><stop offset="1" stop-color="#fff" stop-opacity="0"/></linearGradient><linearGradient id="I" x1="2640" y1="920.313" x2="2640" y2="1359.06" href="#S"><stop stop-color="#ffd882"/><stop offset="1" stop-color="#e9ae2a"/></linearGradient><linearGradient id="J" x1="1460" y1="660" x2="300" y2="660" href="#S"><stop stop-color="#fff"/><stop stop-color="#d0cdff"/><stop offset="1" stop-color="#fff" stop-opacity="0"/></linearGradient><linearGradient id="K" x1="1460" y1="460" x2="1460" y2="860" href="#S"><stop stop-color="#b1adff"/><stop offset="1" stop-color="#6059df"/></linearGradient><linearGradient id="L" x1="3260" y1="260.275" x2="1885" y2="259.999" href="#S"><stop offset=".168" stop-color="#fff" stop-opacity="0"/><stop offset=".95" stop-color="#d3e8fb"/><stop offset="1" stop-color="#fff" stop-opacity="0"/></linearGradient><linearGradient id="M" x1="1890" y1="-109.231" x2="1890" y2="460" href="#S"><stop stop-color="#6083f9"/><stop offset=".793" stop-color="#2a4191"/></linearGradient><linearGradient id="N" x1="1889.96" y1="32.779" x2="1889.96" y2="383.075" href="#S"><stop stop-color="#6083f9"/><stop offset=".793" stop-color="#2a4191"/></linearGradient><linearGradient id="O" x1="2560" y1="1710" x2="845.554" y2="1708.49" href="#S"><stop offset=".317" stop-color="#fff" stop-opacity="0"/><stop offset=".779" stop-color="#fff"/><stop offset="1" stop-color="#dbfddd"/></linearGradient><linearGradient id="P" x1="590" y1="1480" x2="590" y2="1910" href="#S"><stop stop-color="#4bdd8d"/><stop offset="1" stop-color="#1a8652"/></linearGradient><clipPath id="Q"><rect x="1260" y="460" width="400" height="400" rx="200" fill="#fff"/></clipPath><path id="R" d="M1890 460c53.04 0 103.91-21.071 141.42-58.579a199.99 199.99 0 0 0 0-282.842C1993.91 81.071 1943.04 60 1890 60s-103.91 21.071-141.42 58.579a199.99 199.99 0 0 0 0 282.842C1786.09 438.929 1836.96 460 1890 460z"/><linearGradient id="S" gradientUnits="userSpaceOnUse"/></defs></svg>