<svg width="338" height="250" viewBox="0 0 338 250" fill="none" xmlns="http://www.w3.org/2000/svg">
<path d="M12 204H218V244H12V204Z" fill="url(#paint0_linear_149_1220)"/>
<path d="M201.4 224.4C201.4 216.521 207.787 210.133 215.667 210.133H220.067C227.946 210.133 234.333 216.521 234.333 224.4C234.333 232.279 227.946 238.667 220.067 238.667H215.667C207.787 238.667 201.4 232.279 201.4 224.4Z" fill="white"/>
<path d="M217 204C205.954 204 197 212.954 197 224C197 235.046 205.954 244 217 244C228.046 244 237 235.046 237 224C237 212.954 228.046 204 217 204ZM210.78 212.357C211.17 212.292 211.571 212.358 211.919 212.545L217.501 215.79C217.758 215.924 217.972 216.127 218.119 216.377C218.266 216.627 218.34 216.912 218.333 217.202V219.388L215.73 220.94V218.684C215.721 218.396 215.638 218.115 215.49 217.868C215.342 217.621 215.133 217.416 214.883 217.272L211.85 215.578C211.59 215.439 211.299 215.366 211.003 215.366C210.708 215.366 210.417 215.439 210.157 215.578L207.123 217.271C206.864 217.404 206.647 217.606 206.497 217.856C206.347 218.106 206.271 218.393 206.276 218.684V222.207C206.286 222.495 206.368 222.776 206.516 223.023C206.665 223.271 206.873 223.476 207.123 223.62L210.157 225.385C210.417 225.524 210.708 225.597 211.003 225.597C211.299 225.597 211.589 225.524 211.85 225.385L215.667 223.127L218.333 221.645L222.15 219.388C222.411 219.249 222.701 219.176 222.997 219.176C223.292 219.176 223.583 219.249 223.843 219.388L229.487 222.631C229.746 222.763 229.963 222.965 230.113 223.215C230.263 223.464 230.339 223.751 230.334 224.042V230.604C230.325 230.891 230.243 231.171 230.096 231.418C229.949 231.664 229.742 231.87 229.494 232.014L223.851 235.259C223.59 235.399 223.299 235.472 223.003 235.472C222.708 235.472 222.417 235.399 222.156 235.259L216.513 232.016C216.254 231.883 216.037 231.68 215.887 231.431C215.738 231.181 215.661 230.894 215.667 230.603V228.347L218.2 226.866V229.132C218.21 229.42 218.292 229.7 218.441 229.947C218.589 230.194 218.797 230.399 219.047 230.543L222.081 232.236C222.341 232.375 222.632 232.448 222.927 232.448C223.223 232.448 223.513 232.375 223.774 232.236L226.807 230.473C227.066 230.341 227.283 230.138 227.432 229.889C227.582 229.64 227.658 229.353 227.653 229.063V225.605C227.644 225.317 227.561 225.037 227.413 224.789C227.265 224.542 227.057 224.337 226.807 224.193L223.774 222.5C223.513 222.361 223.222 222.289 222.927 222.289C222.632 222.289 222.341 222.361 222.081 222.5L218.277 224.68L215.667 226.232L211.85 228.419C211.589 228.558 211.299 228.631 211.003 228.631C210.708 228.631 210.417 228.558 210.157 228.419L204.513 225.167C204.255 225.035 204.039 224.834 203.889 224.585C203.739 224.337 203.662 224.052 203.666 223.762V217.202C203.652 216.9 203.732 216.601 203.897 216.348C204.061 216.094 204.301 215.899 204.583 215.789L210.226 212.545C210.399 212.452 210.586 212.389 210.78 212.357Z" fill="url(#paint1_linear_149_1220)"/>
<path d="M39 101H264V141H39C39 141 39 125.5 39 121C39 113.19 39 101 39 101Z" fill="url(#paint2_linear_149_1220)"/>
<path d="M248.896 121.449C248.896 113.761 255.129 107.528 262.818 107.528H265.911C273.6 107.528 279.833 113.761 279.833 121.449C279.833 129.138 273.6 135.371 265.911 135.371H262.818C255.129 135.371 248.896 129.138 248.896 121.449Z" fill="white"/>
<path d="M262.272 121.233L261.08 126.064C262.551 126.433 267.088 127.906 267.758 125.181C268.459 122.339 263.743 121.604 262.272 121.233ZM263.897 114.641L262.817 119.022C264.042 119.331 267.818 120.59 268.429 118.111C269.067 115.526 265.122 114.95 263.897 114.641ZM264 101C260.044 101 256.178 102.173 252.889 104.371C249.6 106.568 247.036 109.692 245.522 113.346C244.009 117.001 243.613 121.022 244.384 124.902C245.156 128.781 247.061 132.345 249.858 135.142C252.655 137.939 256.219 139.844 260.098 140.616C263.978 141.387 267.999 140.991 271.654 139.478C275.308 137.964 278.432 135.4 280.629 132.111C282.827 128.822 284 124.956 284 121C284 118.374 283.483 115.773 282.478 113.346C281.473 110.92 279.999 108.715 278.142 106.858C276.285 105.001 274.08 103.528 271.654 102.522C269.227 101.517 266.626 101 264 101ZM272.716 118.151C272.674 118.918 272.38 119.65 271.879 120.233C271.377 120.815 270.698 121.216 269.946 121.373C270.44 121.574 270.887 121.876 271.26 122.258C271.632 122.641 271.921 123.097 272.108 123.597C272.295 124.097 272.377 124.63 272.348 125.163C272.319 125.697 272.18 126.218 271.939 126.695C270.768 130.079 267.986 130.365 264.286 129.656L263.388 133.296L261.218 132.749L262.105 129.158C261.542 129.017 260.968 128.867 260.376 128.705L259.486 132.312L257.319 131.765L258.217 128.119C257.71 127.988 257.195 127.848 256.67 127.715L253.847 127.003L254.924 124.491C254.924 124.491 256.522 124.921 256.501 124.89C256.6 124.921 256.705 124.933 256.809 124.924C256.913 124.915 257.014 124.885 257.107 124.837C257.199 124.788 257.281 124.722 257.348 124.641C257.415 124.561 257.465 124.468 257.495 124.368L259.93 114.493C259.961 114.19 259.873 113.887 259.684 113.649C259.495 113.41 259.221 113.255 258.919 113.216C258.953 113.193 257.343 112.82 257.343 112.82L257.92 110.476L260.912 111.232L260.91 111.243C261.36 111.356 261.823 111.464 262.296 111.573L263.185 107.969L265.353 108.516L264.482 112.049C265.064 112.183 265.65 112.319 266.22 112.463L267.086 108.953L269.255 109.5L268.367 113.105C271.106 114.059 273.11 115.49 272.716 118.151Z" fill="url(#paint3_linear_149_1220)"/>
<path d="M30 46H146V86H30V46Z" fill="url(#paint4_linear_149_1220)"/>
<path d="M146 86C134.969 86 126 77.0312 126 66C126 54.9688 134.969 46 146 46C157.031 46 166 54.9688 166 66C166 77.0312 157.031 86 146 86Z" fill="url(#paint5_linear_149_1220)"/>
<path d="M146.375 73.25V80.3438L155.156 68L146.375 73.25ZM154.844 65.7188L146.375 51.6562V61.875L154.844 65.7188ZM146.375 62.6562V71.4063L154.781 66.5L146.375 62.6562ZM137.188 65.7188L145.625 51.6562V61.875L137.188 65.7188ZM145.625 62.6562V71.4063L137.219 66.5L145.625 62.6562ZM145.625 73.25V80.3438L136.844 68L145.625 73.25Z" fill="white"/>
<path d="M189 6H326V46H189V6Z" fill="url(#paint6_linear_149_1220)"/>
<path d="M209 26C209 37.0457 200.046 46 189 46C177.954 46 169 37.0457 169 26C169 14.9543 177.954 6 189 6C200.046 6 209 14.9543 209 26Z" fill="white"/>
<path d="M189 6C177.954 6 169 14.9543 169 26C169 37.0457 177.954 46 189 46C200.046 46 209 37.0457 209 26C209 14.9543 200.046 6 189 6ZM190.727 36.8435V39.6604H188.033V36.8752C183.611 36.2697 181.675 32.6369 181.675 32.6369L184.427 30.3347C184.427 30.3347 186.185 33.3937 189.363 33.3937C191.119 33.3937 192.451 32.4538 192.451 30.8479C192.451 27.094 182.337 27.5495 182.337 20.5851C182.337 17.5577 184.731 15.3766 188.031 14.8606V12.0465H190.726V14.8606C193.026 15.1633 195.751 16.3743 195.751 18.9792V20.9773H192.179V20.0085C192.179 19.0095 190.906 18.3435 189.482 18.3435C187.665 18.3435 186.335 19.2517 186.335 20.5232C186.335 24.368 196.449 23.4295 196.449 30.7268C196.449 33.7267 194.208 36.3275 190.727 36.8435Z" fill="url(#paint7_linear_149_1220)"/>
<path d="M58 151H256V191H58V151Z" fill="url(#paint8_linear_149_1220)"/>
<path d="M44.4668 171C44.4668 164.225 49.9587 158.733 56.7334 158.733H63.4001C70.1748 158.733 75.6667 164.225 75.6667 171C75.6667 177.775 70.1748 183.267 63.4001 183.267H56.7334C49.9587 183.267 44.4668 177.775 44.4668 171Z" fill="white"/>
<path fill-rule="evenodd" clip-rule="evenodd" d="M59 191C47.9537 191 39 182.046 39 171C39 159.954 47.9537 151 59 151C70.0462 151 79 159.954 79 171C79 182.046 70.0462 191 59 191ZM61.4025 168.241V165.284H68.17V160.774H49.7437V165.284H56.5112V168.24C51.0112 168.492 46.875 169.582 46.875 170.887C46.875 172.192 51.0112 173.281 56.5112 173.535V183.012H61.4025V173.532C66.8937 173.28 71.02 172.191 71.02 170.887C71.02 169.584 66.8937 168.495 61.4025 168.241ZM61.4025 172.729V172.726C61.265 172.736 60.5562 172.779 58.975 172.779C57.7125 172.779 56.8237 172.741 56.5112 172.726V172.73C51.6512 172.516 48.0237 171.67 48.0237 170.657C48.0237 169.645 51.6512 168.8 56.5112 168.582V171.887C56.8287 171.91 57.7387 171.964 58.9962 171.964C60.505 171.964 61.2612 171.901 61.4025 171.889V168.585C66.2525 168.801 69.8712 169.647 69.8712 170.657C69.8712 171.67 66.2525 172.514 61.4025 172.729Z" fill="url(#paint9_linear_149_1220)"/>
<defs>
<linearGradient id="paint0_linear_149_1220" x1="237" y1="224" x2="12" y2="224.013" gradientUnits="userSpaceOnUse">
<stop offset="0.0001" stop-color="#DCB4FF" stop-opacity="0.5"/>
<stop offset="0.820807" stop-color="white" stop-opacity="0"/>
</linearGradient>
<linearGradient id="paint1_linear_149_1220" x1="217" y1="188" x2="217" y2="248.067" gradientUnits="userSpaceOnUse">
<stop stop-color="#D67DEE"/>
<stop offset="0.704422" stop-color="#7F2C96"/>
</linearGradient>
<linearGradient id="paint2_linear_149_1220" x1="305.778" y1="121" x2="-69.8889" y2="120.896" gradientUnits="userSpaceOnUse">
<stop stop-color="#FFEBA2" stop-opacity="0.5"/>
<stop offset="0.0001" stop-color="#FFF0B8" stop-opacity="0.8"/>
<stop offset="0.409525" stop-color="white" stop-opacity="0"/>
</linearGradient>
<linearGradient id="paint3_linear_149_1220" x1="264" y1="92.0313" x2="264" y2="135.906" gradientUnits="userSpaceOnUse">
<stop stop-color="#FFD882"/>
<stop offset="1" stop-color="#E9AE2A"/>
</linearGradient>
<linearGradient id="paint4_linear_149_1220" x1="202.931" y1="66" x2="30" y2="66" gradientUnits="userSpaceOnUse">
<stop offset="0.149038" stop-color="#B4B0FF" stop-opacity="0.1"/>
<stop offset="0.245192" stop-color="#A8A3FF" stop-opacity="0.5"/>
<stop offset="1" stop-color="white" stop-opacity="0"/>
</linearGradient>
<linearGradient id="paint5_linear_149_1220" x1="98" y1="46" x2="98" y2="86" gradientUnits="userSpaceOnUse">
<stop stop-color="#B1ADFF"/>
<stop offset="1" stop-color="#6059DF"/>
</linearGradient>
<linearGradient id="paint6_linear_149_1220" x1="316.259" y1="26" x2="172.317" y2="26" gradientUnits="userSpaceOnUse">
<stop offset="0.0384615" stop-color="white" stop-opacity="0"/>
<stop offset="0.427885" stop-color="#C0E1FF" stop-opacity="0.2"/>
<stop offset="0.975962" stop-color="#CCE7FF" stop-opacity="0.7"/>
</linearGradient>
<linearGradient id="paint7_linear_149_1220" x1="189" y1="6" x2="189" y2="46" gradientUnits="userSpaceOnUse">
<stop stop-color="#5987EC"/>
<stop offset="1" stop-color="#2859C5"/>
</linearGradient>
<linearGradient id="paint8_linear_149_1220" x1="256" y1="171" x2="39" y2="171.045" gradientUnits="userSpaceOnUse">
<stop offset="0.317308" stop-color="white" stop-opacity="0"/>
<stop offset="1" stop-color="#C6FFC9" stop-opacity="0.5"/>
</linearGradient>
<linearGradient id="paint9_linear_149_1220" x1="59" y1="148" x2="59" y2="191" gradientUnits="userSpaceOnUse">
<stop stop-color="#4BDD8D"/>
<stop offset="1" stop-color="#1A8652"/>
</linearGradient>
</defs>
</svg>
