<svg width="1000" height="395" viewBox="0 0 1000 395" fill="none" xmlns="http://www.w3.org/2000/svg">
<path d="M209.091 244V150.909H245.818C252.879 150.909 258.894 152.258 263.864 154.955C268.833 157.621 272.621 161.333 275.227 166.091C277.864 170.818 279.182 176.273 279.182 182.455C279.182 188.636 277.848 194.091 275.182 198.818C272.515 203.545 268.652 207.227 263.591 209.864C258.561 212.5 252.47 213.818 245.318 213.818H221.909V198.045H242.136C245.924 198.045 249.045 197.394 251.5 196.091C253.985 194.758 255.833 192.924 257.045 190.591C258.288 188.227 258.909 185.515 258.909 182.455C258.909 179.364 258.288 176.667 257.045 174.364C255.833 172.03 253.985 170.227 251.5 168.955C249.015 167.652 245.864 167 242.045 167H228.773V244H209.091ZM326.135 245.364C318.954 245.364 312.772 243.909 307.59 241C302.438 238.061 298.469 233.909 295.681 228.545C292.893 223.152 291.499 216.773 291.499 209.409C291.499 202.227 292.893 195.924 295.681 190.5C298.469 185.076 302.393 180.848 307.454 177.818C312.545 174.788 318.514 173.273 325.363 173.273C329.969 173.273 334.257 174.015 338.226 175.5C342.226 176.955 345.711 179.152 348.681 182.091C351.681 185.03 354.014 188.727 355.681 193.182C357.348 197.606 358.181 202.788 358.181 208.727V214.045H299.226V202.045H339.954C339.954 199.258 339.348 196.788 338.135 194.636C336.923 192.485 335.242 190.803 333.09 189.591C330.969 188.348 328.499 187.727 325.681 187.727C322.742 187.727 320.135 188.409 317.863 189.773C315.62 191.106 313.863 192.909 312.59 195.182C311.317 197.424 310.666 199.924 310.635 202.682V214.091C310.635 217.545 311.272 220.53 312.545 223.045C313.848 225.561 315.681 227.5 318.045 228.864C320.408 230.227 323.211 230.909 326.454 230.909C328.605 230.909 330.575 230.606 332.363 230C334.151 229.394 335.681 228.485 336.954 227.273C338.226 226.061 339.196 224.576 339.863 222.818L357.772 224C356.863 228.303 354.999 232.061 352.181 235.273C349.393 238.455 345.787 240.939 341.363 242.727C336.969 244.485 331.893 245.364 326.135 245.364ZM394.021 203.636V244H374.657V174.182H393.112V186.5H393.93C395.475 182.439 398.066 179.227 401.703 176.864C405.339 174.47 409.748 173.273 414.93 173.273C419.778 173.273 424.006 174.333 427.612 176.455C431.218 178.576 434.021 181.606 436.021 185.545C438.021 189.455 439.021 194.121 439.021 199.545V244H419.657V203C419.688 198.727 418.597 195.394 416.385 193C414.172 190.576 411.127 189.364 407.248 189.364C404.642 189.364 402.339 189.924 400.339 191.045C398.369 192.167 396.824 193.803 395.703 195.955C394.612 198.076 394.051 200.636 394.021 203.636ZM477.486 203.636V244H458.122V174.182H476.577V186.5H477.395C478.94 182.439 481.531 179.227 485.168 176.864C488.804 174.47 493.213 173.273 498.395 173.273C503.243 173.273 507.471 174.333 511.077 176.455C514.683 178.576 517.486 181.606 519.486 185.545C521.486 189.455 522.486 194.121 522.486 199.545V244H503.122V203C503.153 198.727 502.062 195.394 499.85 193C497.637 190.576 494.592 189.364 490.713 189.364C488.107 189.364 485.804 189.924 483.804 191.045C481.834 192.167 480.289 193.803 479.168 195.955C478.077 198.076 477.516 200.636 477.486 203.636ZM551.042 270.182C548.587 270.182 546.284 269.985 544.133 269.591C542.012 269.227 540.254 268.758 538.86 268.182L543.224 253.727C545.496 254.424 547.542 254.803 549.36 254.864C551.208 254.924 552.799 254.5 554.133 253.591C555.496 252.682 556.602 251.136 557.451 248.955L558.587 246L533.542 174.182H553.905L568.36 225.455H569.087L583.678 174.182H604.178L577.042 251.545C575.739 255.303 573.966 258.576 571.724 261.364C569.512 264.182 566.708 266.348 563.315 267.864C559.921 269.409 555.83 270.182 551.042 270.182ZM676.018 194.091L658.291 195.182C657.988 193.667 657.336 192.303 656.336 191.091C655.336 189.848 654.018 188.864 652.382 188.136C650.776 187.379 648.852 187 646.609 187C643.609 187 641.079 187.636 639.018 188.909C636.958 190.152 635.927 191.818 635.927 193.909C635.927 195.576 636.594 196.985 637.927 198.136C639.261 199.288 641.548 200.212 644.791 200.909L657.427 203.455C664.215 204.848 669.276 207.091 672.609 210.182C675.942 213.273 677.609 217.333 677.609 222.364C677.609 226.939 676.261 230.955 673.564 234.409C670.897 237.864 667.23 240.561 662.564 242.5C657.927 244.409 652.579 245.364 646.518 245.364C637.276 245.364 629.912 243.439 624.427 239.591C618.973 235.712 615.776 230.439 614.836 223.773L633.882 222.773C634.458 225.591 635.852 227.742 638.064 229.227C640.276 230.682 643.109 231.409 646.564 231.409C649.958 231.409 652.685 230.758 654.745 229.455C656.836 228.121 657.897 226.409 657.927 224.318C657.897 222.561 657.155 221.121 655.7 220C654.245 218.848 652.003 217.97 648.973 217.364L636.882 214.955C630.064 213.591 624.988 211.227 621.655 207.864C618.352 204.5 616.7 200.212 616.7 195C616.7 190.515 617.912 186.652 620.336 183.409C622.791 180.167 626.23 177.667 630.655 175.909C635.109 174.152 640.321 173.273 646.291 173.273C655.109 173.273 662.048 175.136 667.109 178.864C672.2 182.591 675.17 187.667 676.018 194.091ZM693.642 244V174.182H713.006V244H693.642ZM703.37 165.182C700.491 165.182 698.021 164.227 695.96 162.318C693.93 160.379 692.915 158.061 692.915 155.364C692.915 152.697 693.93 150.409 695.96 148.5C698.021 146.561 700.491 145.591 703.37 145.591C706.248 145.591 708.703 146.561 710.733 148.5C712.794 150.409 713.824 152.697 713.824 155.364C713.824 158.061 712.794 160.379 710.733 162.318C708.703 164.227 706.248 165.182 703.37 165.182ZM752.266 245.318C747.812 245.318 743.842 244.545 740.357 243C736.872 241.424 734.115 239.106 732.085 236.045C730.085 232.955 729.085 229.106 729.085 224.5C729.085 220.621 729.797 217.364 731.221 214.727C732.645 212.091 734.585 209.97 737.039 208.364C739.494 206.758 742.282 205.545 745.403 204.727C748.554 203.909 751.857 203.333 755.312 203C759.372 202.576 762.645 202.182 765.13 201.818C767.615 201.424 769.418 200.848 770.539 200.091C771.66 199.333 772.221 198.212 772.221 196.727V196.455C772.221 193.576 771.312 191.348 769.494 189.773C767.706 188.197 765.16 187.409 761.857 187.409C758.372 187.409 755.6 188.182 753.539 189.727C751.478 191.242 750.115 193.152 749.448 195.455L731.539 194C732.448 189.758 734.236 186.091 736.903 183C739.569 179.879 743.009 177.485 747.221 175.818C751.463 174.121 756.372 173.273 761.948 173.273C765.827 173.273 769.539 173.727 773.085 174.636C776.66 175.545 779.827 176.955 782.585 178.864C785.372 180.773 787.569 183.227 789.175 186.227C790.782 189.197 791.585 192.758 791.585 196.909V244H773.221V234.318H772.675C771.554 236.5 770.054 238.424 768.175 240.091C766.297 241.727 764.039 243.015 761.403 243.955C758.766 244.864 755.721 245.318 752.266 245.318ZM757.812 231.955C760.66 231.955 763.175 231.394 765.357 230.273C767.539 229.121 769.251 227.576 770.494 225.636C771.736 223.697 772.357 221.5 772.357 219.045V211.636C771.751 212.03 770.918 212.394 769.857 212.727C768.827 213.03 767.66 213.318 766.357 213.591C765.054 213.833 763.751 214.061 762.448 214.273C761.145 214.455 759.963 214.621 758.903 214.773C756.63 215.106 754.645 215.636 752.948 216.364C751.251 217.091 749.933 218.076 748.994 219.318C748.054 220.53 747.585 222.045 747.585 223.864C747.585 226.5 748.539 228.515 750.448 229.909C752.388 231.273 754.842 231.955 757.812 231.955Z" fill="white"/>
</svg>
